<svg version="1.1" xmlns="http://www.w3.org/2000/svg" style="display: block;" viewBox="0 0 1280 1260" width="320" height="315" preserveAspectRatio="none">
<defs>
	<linearGradient id="Gradient1" gradientUnits="userSpaceOnUse" x1="618.368" y1="518.974" x2="1245.25" y2="639.76">
		<stop class="stop0" offset="0" stop-opacity="1" stop-color="rgb(148,63,123)"/>
		<stop class="stop1" offset="1" stop-opacity="1" stop-color="rgb(194,66,158)"/>
	</linearGradient>
	<linearGradient id="Gradient2" gradientUnits="userSpaceOnUse" x1="560.099" y1="741.273" x2="563.153" y2="796.269">
		<stop class="stop0" offset="0" stop-opacity="1" stop-color="rgb(191,191,187)"/>
		<stop class="stop1" offset="1" stop-opacity="1" stop-color="rgb(234,234,233)"/>
	</linearGradient>
	<linearGradient id="Gradient3" gradientUnits="userSpaceOnUse" x1="599.563" y1="659.037" x2="586.151" y2="748.706">
		<stop class="stop0" offset="0" stop-opacity="1" stop-color="rgb(134,134,132)"/>
		<stop class="stop1" offset="1" stop-opacity="1" stop-color="rgb(186,187,183)"/>
	</linearGradient>
	<linearGradient id="Gradient4" gradientUnits="userSpaceOnUse" x1="398.092" y1="665.012" x2="390.912" y2="590.415">
		<stop class="stop0" offset="0" stop-opacity="1" stop-color="rgb(142,141,139)"/>
		<stop class="stop1" offset="1" stop-opacity="1" stop-color="rgb(245,245,243)"/>
	</linearGradient>
	<linearGradient id="Gradient5" gradientUnits="userSpaceOnUse" x1="396.008" y1="511.967" x2="395.88" y2="594.029">
		<stop class="stop0" offset="0" stop-opacity="1" stop-color="rgb(199,201,197)"/>
		<stop class="stop1" offset="1" stop-opacity="1" stop-color="rgb(255,255,255)"/>
	</linearGradient>
	<linearGradient id="Gradient6" gradientUnits="userSpaceOnUse" x1="390.629" y1="654.296" x2="402.412" y2="755.466">
		<stop class="stop0" offset="0" stop-opacity="1" stop-color="rgb(139,138,134)"/>
		<stop class="stop1" offset="1" stop-opacity="1" stop-color="rgb(183,183,178)"/>
	</linearGradient>
	<linearGradient id="Gradient7" gradientUnits="userSpaceOnUse" x1="303.193" y1="491.153" x2="309.5" y2="565.448">
		<stop class="stop0" offset="0" stop-opacity="1" stop-color="rgb(174,177,176)"/>
		<stop class="stop1" offset="1" stop-opacity="1" stop-color="rgb(238,237,235)"/>
	</linearGradient>
	<linearGradient id="Gradient8" gradientUnits="userSpaceOnUse" x1="252.283" y1="668.802" x2="255.703" y2="592.511">
		<stop class="stop0" offset="0" stop-opacity="1" stop-color="rgb(143,140,137)"/>
		<stop class="stop1" offset="1" stop-opacity="1" stop-color="rgb(239,244,243)"/>
	</linearGradient>
	<linearGradient id="Gradient9" gradientUnits="userSpaceOnUse" x1="254.379" y1="480.923" x2="254.525" y2="516.098">
		<stop class="stop0" offset="0" stop-opacity="1" stop-color="rgb(162,163,161)"/>
		<stop class="stop1" offset="1" stop-opacity="1" stop-color="rgb(195,195,192)"/>
	</linearGradient>
	<linearGradient id="Gradient10" gradientUnits="userSpaceOnUse" x1="306.713" y1="661.153" x2="307.742" y2="750.28">
		<stop class="stop0" offset="0" stop-opacity="1" stop-color="rgb(137,137,134)"/>
		<stop class="stop1" offset="1" stop-opacity="1" stop-color="rgb(185,185,182)"/>
	</linearGradient>
	<linearGradient id="Gradient11" gradientUnits="userSpaceOnUse" x1="247.791" y1="704.117" x2="251.716" y2="799.546">
		<stop class="stop0" offset="0" stop-opacity="1" stop-color="rgb(158,159,156)"/>
		<stop class="stop1" offset="1" stop-opacity="1" stop-color="rgb(230,231,228)"/>
	</linearGradient>
	<linearGradient id="Gradient12" gradientUnits="userSpaceOnUse" x1="148.249" y1="542.216" x2="413.617" y2="663.373">
		<stop class="stop0" offset="0" stop-opacity="1" stop-color="rgb(31,186,203)"/>
		<stop class="stop1" offset="1" stop-opacity="1" stop-color="rgb(6,252,255)"/>
	</linearGradient>
	<linearGradient id="Gradient13" gradientUnits="userSpaceOnUse" x1="1032.68" y1="658.156" x2="1034.57" y2="769.753">
		<stop class="stop0" offset="0" stop-opacity="1" stop-color="rgb(125,123,122)"/>
		<stop class="stop1" offset="1" stop-opacity="1" stop-color="rgb(205,205,203)"/>
	</linearGradient>
	<linearGradient id="Gradient14" gradientUnits="userSpaceOnUse" x1="1079.46" y1="509.326" x2="1084.82" y2="566.359">
		<stop class="stop0" offset="0" stop-opacity="1" stop-color="rgb(190,189,187)"/>
		<stop class="stop1" offset="1" stop-opacity="1" stop-color="rgb(239,240,239)"/>
	</linearGradient>
	<linearGradient id="Gradient15" gradientUnits="userSpaceOnUse" x1="1003.59" y1="478.8" x2="1037.22" y2="578.068">
		<stop class="stop0" offset="0" stop-opacity="1" stop-color="rgb(194,186,188)"/>
		<stop class="stop1" offset="1" stop-opacity="1" stop-color="rgb(253,245,246)"/>
	</linearGradient>
	<linearGradient id="Gradient16" gradientUnits="userSpaceOnUse" x1="1005.45" y1="651.734" x2="1017.55" y2="632.266">
		<stop class="stop0" offset="0" stop-opacity="1" stop-color="rgb(133,115,128)"/>
		<stop class="stop1" offset="1" stop-opacity="1" stop-color="rgb(164,134,152)"/>
	</linearGradient>
	<linearGradient id="Gradient17" gradientUnits="userSpaceOnUse" x1="1030.1" y1="671.676" x2="1032.91" y2="591.01">
		<stop class="stop0" offset="0" stop-opacity="1" stop-color="rgb(141,141,139)"/>
		<stop class="stop1" offset="1" stop-opacity="1" stop-color="rgb(242,238,238)"/>
	</linearGradient>
	<linearGradient id="Gradient18" gradientUnits="userSpaceOnUse" x1="843.108" y1="489.258" x2="843.77" y2="599.47">
		<stop class="stop0" offset="0" stop-opacity="1" stop-color="rgb(186,188,184)"/>
		<stop class="stop1" offset="1" stop-opacity="1" stop-color="rgb(246,249,246)"/>
	</linearGradient>
	<linearGradient id="Gradient19" gradientUnits="userSpaceOnUse" x1="644.358" y1="689.179" x2="742.789" y2="698.211">
		<stop class="stop0" offset="0" stop-opacity="1" stop-color="rgb(167,166,164)"/>
		<stop class="stop1" offset="1" stop-opacity="1" stop-color="rgb(196,197,196)"/>
	</linearGradient>
	<linearGradient id="Gradient20" gradientUnits="userSpaceOnUse" x1="618.733" y1="482.561" x2="613.376" y2="513.329">
		<stop class="stop0" offset="0" stop-opacity="1" stop-color="rgb(166,174,172)"/>
		<stop class="stop1" offset="1" stop-opacity="1" stop-color="rgb(199,199,195)"/>
	</linearGradient>
	<linearGradient id="Gradient21" gradientUnits="userSpaceOnUse" x1="609.69" y1="508.246" x2="606.136" y2="589.791">
		<stop class="stop0" offset="0" stop-opacity="1" stop-color="rgb(199,199,196)"/>
		<stop class="stop1" offset="1" stop-opacity="1" stop-color="rgb(252,255,251)"/>
	</linearGradient>
	<linearGradient id="Gradient22" gradientUnits="userSpaceOnUse" x1="647.663" y1="487.665" x2="625.434" y2="524.176">
		<stop class="stop0" offset="0" stop-opacity="1" stop-color="rgb(120,195,204)"/>
		<stop class="stop1" offset="1" stop-opacity="1" stop-color="rgb(73,220,227)"/>
	</linearGradient>
	<linearGradient id="Gradient23" gradientUnits="userSpaceOnUse" x1="666.187" y1="504.992" x2="665.927" y2="594.038">
		<stop class="stop0" offset="0" stop-opacity="1" stop-color="rgb(192,194,192)"/>
		<stop class="stop1" offset="1" stop-opacity="1" stop-color="rgb(247,248,245)"/>
	</linearGradient>
	<linearGradient id="Gradient24" gradientUnits="userSpaceOnUse" x1="597.539" y1="665.913" x2="586.434" y2="585.663">
		<stop class="stop0" offset="0" stop-opacity="1" stop-color="rgb(148,148,145)"/>
		<stop class="stop1" offset="1" stop-opacity="1" stop-color="rgb(246,248,244)"/>
	</linearGradient>
	<linearGradient id="Gradient25" gradientUnits="userSpaceOnUse" x1="372.489" y1="899.909" x2="369.96" y2="275.029">
		<stop class="stop0" offset="0" stop-opacity="1" stop-color="rgb(22,97,110)"/>
		<stop class="stop1" offset="1" stop-opacity="1" stop-color="rgb(32,150,164)"/>
	</linearGradient>
	<linearGradient id="Gradient26" gradientUnits="userSpaceOnUse" x1="7.01783" y1="-0.977234" x2="107.487" y2="100.518">
		<stop class="stop0" offset="0" stop-opacity="1" stop-color="rgb(1,10,11)"/>
		<stop class="stop1" offset="1" stop-opacity="1" stop-color="rgb(9,35,38)"/>
	</linearGradient>
	<linearGradient id="Gradient27" gradientUnits="userSpaceOnUse" x1="1276.05" y1="3.04633" x2="1176.95" y2="101.545">
		<stop class="stop0" offset="0" stop-opacity="1" stop-color="rgb(5,8,9)"/>
		<stop class="stop1" offset="1" stop-opacity="1" stop-color="rgb(47,15,30)"/>
	</linearGradient>
</defs>
<path transform="translate(0,0)" fill="rgb(24,26,32)" d="M 0 0 L 221.845 0 L 1068.02 0 L 1280 0 L 1280 195.668 L 1280 1260 L 0 1260 L 0 206.845 L 0 0 z"/>
<path transform="translate(0,0)" fill="url(#Gradient27)" d="M 1068.02 0 L 1280 0 L 1280 195.668 L 1277.43 196.122 C 1277.04 197.2 1276.87 198.239 1276.75 199.377 C 1268.44 179.411 1263.77 155.68 1253.74 135.445 C 1233.07 93.7298 1186.33 42.7214 1142.67 24.3524 C 1132.94 20.2581 1118.07 15.164 1108.01 11.8247 C 1096.53 8.01587 1079.7 6.43675 1068.96 0.53109 L 1068.02 0 z"/>
<path transform="translate(0,0)" fill="url(#Gradient26)" d="M 0 0 L 221.845 0 C 209.998 7.24208 170.443 11.4022 153.845 17.7425 C 82.2133 45.1041 33.5425 104.015 8.61682 175.569 C 4.90686 186.322 6.52904 197.556 0 206.845 L 0 0 z"/>
<path transform="translate(0,0)" fill="url(#Gradient25)" d="M 635.007 250.457 C 634.934 242.012 631.272 210.163 640.787 209.211 C 644.502 214.653 642.975 267.163 642.916 276.082 C 652.675 274.004 708.723 274.71 721.265 274.713 L 892.498 274.705 L 1069.19 274.587 C 1092.1 274.554 1142.8 273.07 1162.21 276.347 C 1168.12 280.776 1173.46 287.168 1173.9 294.621 C 1175.24 317.373 1174.42 342.712 1174.39 365.466 C 1174.65 417.715 1174.57 469.965 1174.14 522.213 L 1174.54 596.503 C 1174.48 610.677 1173.53 625.497 1173.92 639.513 C 1174.85 672.395 1175.51 706.225 1172.46 738.956 C 1171.26 751.823 1155.77 769.778 1150.03 781.093 C 1141.13 801.034 1130.27 811.529 1112.45 823.511 C 1108.56 826.126 1103.95 833.802 1099.55 836.452 C 1072.37 852.073 1028.02 855.538 997.833 851.912 C 978.307 846.4 961.288 831.064 944.385 820.461 C 918.336 804.119 909.133 725.295 869.258 758.942 C 857.375 768.969 848.932 793.425 839.825 806.051 C 839.093 808.49 837.687 811.286 838.548 813.217 C 835.479 821.742 825.546 828.956 817.777 832.72 C 812.771 835.145 797.991 835.448 791.584 836.59 C 787.07 837.395 776.782 842.54 773.94 842.797 C 751.983 844.778 721.133 849.292 700.318 841.105 C 694.592 838.852 687.606 835.178 682.697 834.167 C 674.191 832.416 666.049 833.325 657.691 830.481 C 652.618 828.625 650.821 826.775 646.644 823.281 C 644.91 820.582 644.335 806.795 642.874 800.978 L 643.044 777.687 L 643.092 762.405 L 643.293 745.272 C 640.384 742.606 639.725 741.831 635.859 740.454 C 637.012 748.185 636.816 772.085 635.925 780.117 L 636.016 785.102 L 635.584 841.361 C 628.376 851.317 647.093 863.41 623.493 867.31 L 624.329 868.202 C 625.279 869.232 625.405 869.35 625.87 870.715 C 617.531 878.869 615.172 879.745 611.89 890.856 C 609.008 893.232 601.114 900.748 598.186 901.625 C 574.897 902.365 546.996 901.486 523.181 901.471 L 360.284 901.335 L 263.097 901.624 C 247.024 901.687 222.931 902.44 207.497 901.045 C 218.036 899.673 238.442 899.942 249.16 899.957 L 309.706 899.998 L 485.965 899.992 C 518.254 900.016 557.405 901.001 589.27 899.392 L 588.459 897.129 C 589.827 895.201 590.224 894.264 591.238 892.11 C 591.274 887.431 586.966 882.765 582.665 882.143 C 568.871 880.446 555.715 879.806 541.992 877.212 C 538.48 876.548 522.306 878.497 517.635 878.58 C 482.267 879.208 447.642 880.512 412.364 876.436 C 394.876 874.416 377.566 870.864 360.192 868.043 C 355.731 867.323 351.165 865.401 346.737 864.81 C 314.849 868.312 281.155 883.832 248.583 875.316 C 228.781 868.828 206.472 860.527 188.673 849.75 C 186.184 848.244 178.206 841.207 176.878 839.798 C 157.893 819.647 124.619 813.664 109.194 789.863 L 108.636 788.988 L 107.882 789.077 C 107.963 794.764 108.553 812.996 107.712 817.578 C 106.559 813.986 107.04 798.048 106.738 793.028 C 103.81 744.287 106.67 694.875 106.476 646.256 L 105.692 406.247 L 105.518 335.515 C 105.481 322 105.259 308.225 105.83 294.721 C 106.259 284.592 110.323 281.273 117.582 274.899 C 171.794 273.274 232.134 274.679 286.885 274.646 L 634.738 274.531 C 634.567 265.972 634.424 258.995 635.007 250.457 z"/>
<path transform="translate(0,0)" fill="rgb(115,31,89)" d="M 642.916 276.082 C 652.675 274.004 708.723 274.71 721.265 274.713 L 892.498 274.705 L 1069.19 274.587 C 1092.1 274.554 1142.8 273.07 1162.21 276.347 C 1168.12 280.776 1173.46 287.168 1173.9 294.621 C 1175.24 317.373 1174.42 342.712 1174.39 365.466 C 1174.65 417.715 1174.57 469.965 1174.14 522.213 L 1174.54 596.503 C 1174.48 610.677 1173.53 625.497 1173.92 639.513 C 1174.85 672.395 1175.51 706.225 1172.46 738.956 C 1171.26 751.823 1155.77 769.778 1150.03 781.093 C 1141.13 801.034 1130.27 811.529 1112.45 823.511 C 1108.56 826.126 1103.95 833.802 1099.55 836.452 C 1072.37 852.073 1028.02 855.538 997.833 851.912 C 978.307 846.4 961.288 831.064 944.385 820.461 C 918.336 804.119 909.133 725.295 869.258 758.942 C 857.375 768.969 848.932 793.425 839.825 806.051 C 839.093 808.49 837.687 811.286 838.548 813.217 C 835.479 821.742 825.546 828.956 817.777 832.72 C 812.771 835.145 797.991 835.448 791.584 836.59 C 787.07 837.395 776.782 842.54 773.94 842.797 C 751.983 844.778 721.133 849.292 700.318 841.105 C 694.592 838.852 687.606 835.178 682.697 834.167 C 674.191 832.416 666.049 833.325 657.691 830.481 C 652.618 828.625 650.821 826.775 646.644 823.281 C 644.91 820.582 644.335 806.795 642.874 800.978 L 643.044 777.687 L 643.092 762.405 L 643.293 745.272 C 640.384 742.606 639.725 741.831 635.859 740.454 L 635.177 739.853 C 634.949 737.001 635.119 733.223 635.163 730.29 L 644.06 730.116 C 645.512 718.816 644.082 705.518 643.132 694.044 C 642.613 692.449 642.223 689.951 641.895 688.221 L 640.963 688.272 C 637.528 689.074 616.497 688.082 612.168 687.787 L 611.062 688.866 L 605.735 689.365 C 605.342 686.928 608.106 674.717 608.707 671.379 C 607.401 668.946 606.827 667.721 606.528 664.969 L 608.357 661.364 C 604.982 661.695 596.148 665.047 592.057 666.252 C 583.12 668.884 573.913 668.351 565.908 672.235 C 564.002 673.16 561.584 673.943 559.458 674.15 C 567.845 643.584 574.733 612.607 583.147 582.303 C 588.866 558.927 593.702 535.345 597.645 511.605 L 600.499 495.49 C 601.409 489.866 601.893 485.528 604.12 480.201 C 611.363 484.901 622.416 483.095 631.408 482.739 L 637.887 479.609 C 639.656 479.71 640.023 479.401 641.669 478.758 L 643.278 477.126 C 642.915 470.43 643.121 462.653 643.135 455.872 C 642.104 396.074 643.517 335.906 642.916 276.082 z"/>
<path transform="translate(0,0)" fill="rgb(215,36,160)" d="M 643.278 477.126 C 649.465 476.95 662.228 476.263 667.891 477.205 C 667.929 484.033 671.876 498.23 673.019 505.896 L 675.059 517.139 C 678.224 502.913 667.732 487.044 671.426 479.135 L 673.768 479.566 C 692.259 494.435 689.172 491.258 694.066 513.494 C 695.544 520.21 703.246 542.957 706.705 548.545 C 709.16 542.858 698.151 522.729 699.579 517.011 C 703.373 517.194 711.996 527.997 717.983 528.535 C 723.336 529.016 730.79 522.831 735 519.767 C 734.881 524.404 734.755 526.186 735.586 530.787 L 736.518 531.028 C 739.025 524.316 740.136 511.797 739.048 504.635 C 740.314 500.916 739.838 499.93 743.365 498.482 C 746.954 497.009 752.69 496.107 756.51 496.49 C 756.392 511.208 757.775 527.987 758.403 542.965 C 758.843 553.444 757.948 573.313 759.073 583.025 C 760.533 570.544 758.238 519.23 760.85 513.358 L 761.91 514.665 C 762.194 545.024 762.257 575.385 762.1 605.745 C 758.407 640.69 759.754 682.443 759.96 717.792 C 760.012 726.702 760.599 753.919 761.911 761.327 C 761.945 771.661 761.46 788.615 762.254 798.425 L 758.577 793.474 C 760.43 805.564 755.58 816.065 744.219 804.939 C 742.582 803.325 740.977 801.679 739.404 800.002 C 728.322 795.708 697.75 800.986 688.648 799.113 C 683.066 781.213 682.333 759.629 676.126 741.534 C 675.191 738.807 673.645 737.342 672.874 734.47 L 675.857 734.222 C 677.02 732.418 676.625 732.831 676.496 730.199 C 675.226 729.434 648.302 731.295 644.211 731.28 L 644.06 730.116 C 645.512 718.816 644.082 705.518 643.132 694.044 C 642.613 692.449 642.223 689.951 641.895 688.221 L 640.963 688.272 C 637.528 689.074 616.497 688.082 612.168 687.787 L 611.062 688.866 L 605.735 689.365 C 605.342 686.928 608.106 674.717 608.707 671.379 C 607.401 668.946 606.827 667.721 606.528 664.969 L 608.357 661.364 C 604.982 661.695 596.148 665.047 592.057 666.252 C 583.12 668.884 573.913 668.351 565.908 672.235 C 564.002 673.16 561.584 673.943 559.458 674.15 C 567.845 643.584 574.733 612.607 583.147 582.303 C 588.866 558.927 593.702 535.345 597.645 511.605 L 600.499 495.49 C 601.409 489.866 601.893 485.528 604.12 480.201 C 611.363 484.901 622.416 483.095 631.408 482.739 L 637.887 479.609 C 639.656 479.71 640.023 479.401 641.669 478.758 L 643.278 477.126 z"/>
<path transform="translate(0,0)" fill="url(#Gradient24)" d="M 643.278 477.126 C 649.465 476.95 662.228 476.263 667.891 477.205 C 667.929 484.033 671.876 498.23 673.019 505.896 L 675.059 517.139 C 679.014 537.366 687.756 585.434 694.418 603.183 L 692.472 605.92 C 689.502 600.889 690.927 593.041 685.75 591.844 C 678.755 590.227 659.62 592.407 653.695 596.416 C 653.829 601.362 655.542 607.892 654.468 611.376 C 654.828 619.055 656.572 629.286 655.057 636.431 C 656.11 645.884 660.22 663.998 660.594 670.833 C 658.159 669.532 654.819 664.019 653.06 661.472 C 653.871 669.819 655.393 679.19 652.309 687.013 L 651.871 688.147 L 642.789 688.52 L 642.486 685.144 L 641.895 688.221 L 640.963 688.272 C 637.528 689.074 616.497 688.082 612.168 687.787 L 611.062 688.866 L 605.735 689.365 C 605.342 686.928 608.106 674.717 608.707 671.379 C 607.401 668.946 606.827 667.721 606.528 664.969 L 608.357 661.364 C 604.982 661.695 596.148 665.047 592.057 666.252 C 583.12 668.884 573.913 668.351 565.908 672.235 C 564.002 673.16 561.584 673.943 559.458 674.15 C 567.845 643.584 574.733 612.607 583.147 582.303 C 588.866 558.927 593.702 535.345 597.645 511.605 L 600.499 495.49 C 601.409 489.866 601.893 485.528 604.12 480.201 C 611.363 484.901 622.416 483.095 631.408 482.739 L 637.887 479.609 C 639.656 479.71 640.023 479.401 641.669 478.758 L 643.278 477.126 z"/>
<path transform="translate(0,0)" fill="url(#Gradient23)" d="M 643.278 477.126 C 649.465 476.95 662.228 476.263 667.891 477.205 C 667.929 484.033 671.876 498.23 673.019 505.896 L 675.059 517.139 C 679.014 537.366 687.756 585.434 694.418 603.183 L 692.472 605.92 C 689.502 600.889 690.927 593.041 685.75 591.844 C 678.755 590.227 659.62 592.407 653.695 596.416 C 653.829 601.362 655.542 607.892 654.468 611.376 C 652.839 602.288 650.302 592.13 648.224 583.038 C 645.049 564.733 643.591 551.845 642.625 533.48 L 639.413 528.97 C 636.567 529.281 636.557 530.351 634.219 533.082 L 632.987 532.913 C 634.455 526.962 633.653 516.898 633.038 510.725 C 633.307 506.991 631.665 488.292 631.408 482.739 L 637.887 479.609 C 639.656 479.71 640.023 479.401 641.669 478.758 L 643.278 477.126 z"/>
<path transform="translate(0,0)" fill="rgb(177,178,176)" d="M 643.278 477.126 C 649.465 476.95 662.228 476.263 667.891 477.205 C 667.929 484.033 671.876 498.23 673.019 505.896 C 666.118 503.821 652.281 509.882 643.235 510.187 C 642.912 517.325 642.243 526.551 642.625 533.48 L 639.413 528.97 C 636.567 529.281 636.557 530.351 634.219 533.082 L 632.987 532.913 C 634.455 526.962 633.653 516.898 633.038 510.725 C 633.307 506.991 631.665 488.292 631.408 482.739 L 637.887 479.609 C 639.656 479.71 640.023 479.401 641.669 478.758 L 643.278 477.126 z"/>
<path transform="translate(0,0)" fill="url(#Gradient22)" d="M 641.669 478.758 C 643.113 481.963 642.251 481.136 644.882 483.062 C 645.376 492.805 644.567 500.584 643.235 510.187 C 642.912 517.325 642.243 526.551 642.625 533.48 L 639.413 528.97 C 636.567 529.281 636.557 530.351 634.219 533.082 L 632.987 532.913 C 634.455 526.962 633.653 516.898 633.038 510.725 C 633.307 506.991 631.665 488.292 631.408 482.739 L 637.887 479.609 C 639.656 479.71 640.023 479.401 641.669 478.758 z"/>
<path transform="translate(0,0)" fill="rgb(204,203,202)" d="M 643.278 477.126 C 649.465 476.95 662.228 476.263 667.891 477.205 C 666.414 481.459 666.312 483.224 661.02 483.208 C 655.186 483.19 650.788 482.352 644.882 483.062 C 642.251 481.136 643.113 481.963 641.669 478.758 L 643.278 477.126 z"/>
<path transform="translate(0,0)" fill="rgb(89,216,232)" d="M 634.219 533.082 C 636.557 530.351 636.567 529.281 639.413 528.97 L 642.625 533.48 C 643.591 551.845 645.049 564.733 648.224 583.038 C 650.302 592.13 652.839 602.288 654.468 611.376 C 654.828 619.055 656.572 629.286 655.057 636.431 C 656.11 645.884 660.22 663.998 660.594 670.833 C 658.159 669.532 654.819 664.019 653.06 661.472 C 653.871 669.819 655.393 679.19 652.309 687.013 L 651.871 688.147 L 642.789 688.52 L 642.486 685.144 L 641.895 688.221 L 640.963 688.272 C 637.528 689.074 616.497 688.082 612.168 687.787 C 613.814 674.359 615.379 661.284 618.02 647.986 C 620.895 633.51 625.306 618.297 627.619 603.795 C 632.845 582.023 639.833 555.624 634.219 533.082 z"/>
<path transform="translate(0,0)" fill="rgb(78,241,249)" d="M 627.619 603.795 L 631.445 602.081 C 642.342 610.5 639.104 671.792 640.963 688.272 C 637.528 689.074 616.497 688.082 612.168 687.787 C 613.814 674.359 615.379 661.284 618.02 647.986 C 620.895 633.51 625.306 618.297 627.619 603.795 z"/>
<path transform="translate(0,0)" fill="rgb(131,33,103)" d="M 648.224 583.038 C 650.302 592.13 652.839 602.288 654.468 611.376 C 654.828 619.055 656.572 629.286 655.057 636.431 C 656.11 645.884 660.22 663.998 660.594 670.833 C 658.159 669.532 654.819 664.019 653.06 661.472 C 652.209 652.569 652.828 636.079 642.763 633.836 C 642.735 622.319 642.422 610.804 641.824 599.303 C 641.938 593.416 644.968 587.752 648.224 583.038 z"/>
<path transform="translate(0,0)" fill="rgb(146,131,144)" d="M 648.224 583.038 C 650.302 592.13 652.839 602.288 654.468 611.376 C 654.828 619.055 656.572 629.286 655.057 636.431 C 652.209 624.625 649.406 608.467 641.824 599.303 C 641.938 593.416 644.968 587.752 648.224 583.038 z"/>
<path transform="translate(0,0)" fill="rgb(215,36,160)" d="M 642.763 633.836 C 652.828 636.079 652.209 652.569 653.06 661.472 C 653.871 669.819 655.393 679.19 652.309 687.013 L 651.871 688.147 L 642.789 688.52 L 642.486 685.144 C 641.717 670.492 642.469 648.888 642.763 633.836 z"/>
<path transform="translate(0,0)" fill="url(#Gradient21)" d="M 604.12 480.201 C 611.363 484.901 622.416 483.095 631.408 482.739 C 631.665 488.292 633.307 506.991 633.038 510.725 C 633.653 516.898 634.455 526.962 632.987 532.913 C 630.191 542.992 624.301 569.262 622.093 580.505 C 616.747 586.903 621.236 585.052 617.682 588.216 C 608.796 587.91 597.206 587.7 588.387 589.044 C 583.621 585.901 586.339 586.836 583.147 582.303 C 588.866 558.927 593.702 535.345 597.645 511.605 L 600.499 495.49 C 601.409 489.866 601.893 485.528 604.12 480.201 z"/>
<path transform="translate(0,0)" fill="url(#Gradient20)" d="M 604.12 480.201 C 611.363 484.901 622.416 483.095 631.408 482.739 C 631.665 488.292 633.307 506.991 633.038 510.725 C 632.102 513.141 631.897 515.142 631.489 517.67 L 630.715 516.467 C 630.738 514.66 630.341 512.962 630.021 511.178 C 624.408 506.643 606.079 511.316 598.496 511.583 L 597.645 511.605 L 600.499 495.49 C 601.409 489.866 601.893 485.528 604.12 480.201 z"/>
<path transform="translate(0,0)" fill="rgb(46,154,168)" d="M 632.987 532.913 L 634.219 533.082 C 639.833 555.624 632.845 582.023 627.619 603.795 C 625.306 618.297 620.895 633.51 618.02 647.986 C 615.379 661.284 613.814 674.359 612.168 687.787 L 611.062 688.866 L 605.735 689.365 C 605.342 686.928 608.106 674.717 608.707 671.379 C 610.233 663.101 611.623 656.117 611.853 647.711 C 611.922 645.218 611.393 633.568 611.681 632.323 C 615.595 615.389 618.76 597.568 622.093 580.505 C 624.301 569.262 630.191 542.992 632.987 532.913 z"/>
<path transform="translate(0,0)" fill="url(#Gradient19)" d="M 654.468 611.376 C 655.542 607.892 653.829 601.362 653.695 596.416 C 659.62 592.407 678.755 590.227 685.75 591.844 C 690.927 593.041 689.502 600.889 692.472 605.92 L 694.418 603.183 C 705.513 645.323 713.751 688.925 724.478 731.249 C 729.919 752.72 731.189 779.556 739.404 800.002 C 728.322 795.708 697.75 800.986 688.648 799.113 C 683.066 781.213 682.333 759.629 676.126 741.534 C 675.191 738.807 673.645 737.342 672.874 734.47 L 675.857 734.222 C 677.02 732.418 676.625 732.831 676.496 730.199 C 675.226 729.434 648.302 731.295 644.211 731.28 L 644.06 730.116 C 645.512 718.816 644.082 705.518 643.132 694.044 C 642.613 692.449 642.223 689.951 641.895 688.221 L 642.486 685.144 L 642.789 688.52 L 651.871 688.147 L 652.309 687.013 C 655.393 679.19 653.871 669.819 653.06 661.472 C 654.819 664.019 658.159 669.532 660.594 670.833 C 660.22 663.998 656.11 645.884 655.057 636.431 C 656.572 629.286 654.828 619.055 654.468 611.376 z"/>
<path transform="translate(0,0)" fill="rgb(170,36,129)" d="M 653.06 661.472 C 654.819 664.019 658.159 669.532 660.594 670.833 L 664.79 688.15 L 651.871 688.147 L 652.309 687.013 C 655.393 679.19 653.871 669.819 653.06 661.472 z"/>
<path transform="translate(0,0)" fill="rgb(204,203,202)" d="M 642.486 685.144 L 642.789 688.52 L 643.635 688.629 C 651.508 689.586 663.911 687.174 667.768 691.298 L 667.623 693.042 C 662.656 695.538 650.118 693.77 643.132 694.044 C 642.613 692.449 642.223 689.951 641.895 688.221 L 642.486 685.144 z"/>
<path transform="translate(0,0)" fill="rgb(94,22,75)" d="M 759.073 583.025 C 760.533 570.544 758.238 519.23 760.85 513.358 L 761.91 514.665 C 762.194 545.024 762.257 575.385 762.1 605.745 C 758.407 640.69 759.754 682.443 759.96 717.792 C 760.012 726.702 760.599 753.919 761.911 761.327 C 761.945 771.661 761.46 788.615 762.254 798.425 L 758.577 793.474 C 758.863 791.548 758.393 778.044 758.352 774.919 L 757.316 720.022 C 756.889 674.853 758.379 628.248 759.073 583.025 z"/>
<path transform="translate(0,0)" fill="rgb(177,178,176)" d="M 760.23 481.725 C 767.232 484.334 777.091 482.849 784.516 483.19 C 809.431 484.335 856.177 479.38 878.263 487.44 C 880.499 486.961 882.789 486.142 884.978 485.423 L 887.762 486.386 C 925.355 507.935 928.12 544.044 926.919 583.474 C 932.902 600.311 927.927 639.078 920.594 655.987 C 915.007 668.868 902.436 672.682 902.438 680.338 C 907.522 683.473 921.35 673.762 928.117 671.343 C 931.246 667.756 944.558 663.64 949.382 663.291 C 969.104 661.863 964.378 687.321 965.244 698.57 C 969.848 702.807 984.141 696.042 990.482 697.683 L 991.149 699.58 C 985.907 700.151 947.252 703.08 945.447 704.111 L 945.644 713.225 L 943.971 714.053 C 940.045 726.964 943.244 734.174 941.332 744.727 C 938.816 731.734 942.947 717.354 943.609 705.806 L 941.412 708.524 C 929.095 707.825 939.595 691.77 933.402 686.014 C 922.73 684.113 900.791 692.385 888.922 694.346 L 888.374 694.707 C 886.02 696.238 885.195 696.611 882.599 697.642 L 884.189 699.029 C 879.601 703.19 861.793 705.957 853.679 714.228 C 844.017 724.079 835.964 750.369 826.627 755.511 L 824.983 754.951 C 824.326 750.862 824.791 750.402 827.363 746.996 C 830.655 742.636 830.402 731.897 829.568 726.688 L 830.242 725.016 C 827.4 727.739 824.359 731.486 820.626 731.756 C 817.35 730.835 816.886 730.238 814.096 728.12 C 814.046 731.744 814.02 748.325 813.452 750.921 C 811.228 748.528 812.616 743.701 810.455 739.84 C 810.229 746.56 810.105 760.392 809.067 766.467 C 809.092 777.775 808.831 788.13 810.191 799.394 C 800.354 797.385 774.164 798.623 763.251 799.075 L 762.254 798.425 C 761.46 788.615 761.945 771.661 761.911 761.327 C 760.599 753.919 760.012 726.702 759.96 717.792 C 759.754 682.443 758.407 640.69 762.1 605.745 C 762.257 575.385 762.194 545.024 761.91 514.665 L 761.708 501.778 C 761.218 499.838 760.923 486.325 760.23 481.725 z"/>
<path transform="translate(0,0)" fill="url(#Gradient18)" d="M 760.23 481.725 C 767.232 484.334 777.091 482.849 784.516 483.19 C 809.431 484.335 856.177 479.38 878.263 487.44 C 880.499 486.961 882.789 486.142 884.978 485.423 L 887.762 486.386 C 925.355 507.935 928.12 544.044 926.919 583.474 L 926.928 585.01 C 925.388 594.657 923.964 602.909 921.808 612.422 C 920.215 608.971 921.765 605.021 922.674 601.016 C 915.737 592.677 890.742 601.406 882.344 597.742 L 880.549 591.26 C 879.618 596.668 878.706 603.094 877.108 608.255 C 865.35 634.941 838.798 634.105 813.347 631.748 L 811.803 632.156 C 808.92 628.169 810.041 587.743 809.167 577.731 C 808.815 583.127 809.163 606.212 808.074 608.976 C 803.403 603.716 809.639 593.405 792.065 592.523 C 782.483 592.043 775.39 593.477 766.045 595.217 C 764.236 597.791 763.144 602.492 763.522 605.503 L 762.1 605.745 C 762.257 575.385 762.194 545.024 761.91 514.665 L 761.708 501.778 C 761.218 499.838 760.923 486.325 760.23 481.725 z"/>
<path transform="translate(0,0)" fill="rgb(241,31,172)" d="M 809.167 577.731 C 809.335 568.689 810.618 527.35 809.419 519.837 C 825.723 519.975 842.437 519.936 858.686 520.538 C 866.87 525.157 871.165 528.052 874.626 537.124 L 873.153 535.482 C 882.313 555.744 884.184 568.965 880.549 591.26 C 879.618 596.668 878.706 603.094 877.108 608.255 C 865.35 634.941 838.798 634.105 813.347 631.748 L 811.803 632.156 C 808.92 628.169 810.041 587.743 809.167 577.731 z"/>
<path transform="translate(0,0)" fill="rgb(115,31,89)" d="M 809.167 577.731 C 809.335 568.689 810.618 527.35 809.419 519.837 C 825.723 519.975 842.437 519.936 858.686 520.538 C 866.87 525.157 871.165 528.052 874.626 537.124 L 873.153 535.482 C 882.313 555.744 884.184 568.965 880.549 591.26 C 879.618 596.668 878.706 603.094 877.108 608.255 C 877.714 586.185 882.457 560.411 865.667 542.527 C 853.277 529.329 833.005 531.4 816.716 528.227 C 816.005 528.088 814.873 528.514 814.206 528.737 C 810.38 539.322 813.599 616.761 813.347 631.748 L 811.803 632.156 C 808.92 628.169 810.041 587.743 809.167 577.731 z"/>
<path transform="translate(0,0)" fill="rgb(177,178,176)" d="M 760.23 481.725 C 767.232 484.334 777.091 482.849 784.516 483.19 C 809.431 484.335 856.177 479.38 878.263 487.44 C 882.45 489.856 891.676 496.288 895.495 496.711 C 894.974 503.206 886.311 502.803 880.665 504.174 C 850.946 511.385 820.947 507.042 790.807 506.859 C 783.347 506.801 771.215 507.77 764.758 507.305 C 763.668 505.425 762.669 503.728 761.708 501.778 C 761.218 499.838 760.923 486.325 760.23 481.725 z"/>
<path transform="translate(0,0)" fill="rgb(170,36,129)" d="M 926.919 583.474 C 932.902 600.311 927.927 639.078 920.594 655.987 C 915.007 668.868 902.436 672.682 902.438 680.338 C 907.522 683.473 921.35 673.762 928.117 671.343 C 931.246 667.756 944.558 663.64 949.382 663.291 C 969.104 661.863 964.378 687.321 965.244 698.57 C 969.848 702.807 984.141 696.042 990.482 697.683 L 991.149 699.58 C 985.907 700.151 947.252 703.08 945.447 704.111 L 945.644 713.225 L 943.971 714.053 C 940.045 726.964 943.244 734.174 941.332 744.727 C 938.816 731.734 942.947 717.354 943.609 705.806 L 941.412 708.524 C 929.095 707.825 939.595 691.77 933.402 686.014 C 922.73 684.113 900.791 692.385 888.922 694.346 L 888.374 694.707 C 886.02 696.238 885.195 696.611 882.599 697.642 L 884.189 699.029 C 879.601 703.19 861.793 705.957 853.679 714.228 C 844.017 724.079 835.964 750.369 826.627 755.511 L 824.983 754.951 C 824.326 750.862 824.791 750.402 827.363 746.996 C 830.655 742.636 830.402 731.897 829.568 726.688 L 830.242 725.016 C 827.4 727.739 824.359 731.486 820.626 731.756 C 817.35 730.835 816.886 730.238 814.096 728.12 C 814.046 731.744 814.02 748.325 813.452 750.921 C 811.228 748.528 812.616 743.701 810.455 739.84 C 811.009 725.197 811.244 710.544 811.161 695.89 L 811.859 691.658 L 812.116 684.547 C 811.8 681.717 811.193 679.398 812.257 676.856 C 818.966 676.024 826.871 676.673 833.785 676.81 C 852.322 677.178 865.461 676.682 882.912 670.514 C 887.877 668.259 893.08 665.002 897.821 662.202 C 906.554 654.769 911.242 649.72 917.655 640.351 C 927.423 620.513 928.831 606.466 926.928 585.01 L 926.919 583.474 z"/>
<path transform="translate(0,0)" fill="rgb(215,36,160)" d="M 811.859 691.658 C 812.795 689.945 813.946 686.826 816.246 686.766 C 825.367 686.528 842.231 683.423 846.33 694.014 C 845.965 700.013 841.953 702.73 837.473 705.979 C 837.231 715.225 835.429 717.095 830.242 725.016 C 827.4 727.739 824.359 731.486 820.626 731.756 C 817.35 730.835 816.886 730.238 814.096 728.12 C 814.046 731.744 814.02 748.325 813.452 750.921 C 811.228 748.528 812.616 743.701 810.455 739.84 C 811.009 725.197 811.244 710.544 811.161 695.89 L 811.859 691.658 z"/>
<path transform="translate(0,0)" fill="rgb(94,22,75)" d="M 917.655 640.351 C 922.124 650.837 895.968 678.509 884.538 681.639 C 862.333 687.718 835.528 684.319 812.116 684.547 C 811.8 681.717 811.193 679.398 812.257 676.856 C 818.966 676.024 826.871 676.673 833.785 676.81 C 852.322 677.178 865.461 676.682 882.912 670.514 C 887.877 668.259 893.08 665.002 897.821 662.202 C 906.554 654.769 911.242 649.72 917.655 640.351 z"/>
<path transform="translate(0,0)" fill="rgb(115,31,89)" d="M 897.821 662.202 C 898.934 665.435 898.651 664.285 897.91 668.006 C 893.371 674.606 878.629 681.453 870.886 680.16 L 871.06 679.49 C 874.788 678.072 880.072 676.581 882.319 673.51 L 882.912 670.514 C 887.877 668.259 893.08 665.002 897.821 662.202 z"/>
<path transform="translate(0,0)" fill="rgb(220,221,219)" d="M 761.911 761.327 L 762.619 755.588 L 763.428 755.198 C 764.233 760.467 761.362 778.14 764.936 779.902 C 770.753 782.771 802.36 783.22 806.917 780.245 C 807.641 772.148 806.46 765.979 807.464 757.632 L 808.155 758.047 C 808.583 761.026 808.845 763.466 809.067 766.467 C 809.092 777.775 808.831 788.13 810.191 799.394 C 800.354 797.385 774.164 798.623 763.251 799.075 L 762.254 798.425 C 761.46 788.615 761.945 771.661 761.911 761.327 z"/>
<path transform="translate(0,0)" fill="rgb(146,118,137)" d="M 921.808 612.422 C 923.964 602.909 925.388 594.657 926.928 585.01 C 928.831 606.466 927.423 620.513 917.655 640.351 C 911.242 649.72 906.554 654.769 897.821 662.202 C 893.08 665.002 887.877 668.259 882.912 670.514 C 865.461 676.682 852.322 677.178 833.785 676.81 C 826.871 676.673 818.966 676.024 812.257 676.856 C 811.193 679.398 811.8 681.717 812.116 684.547 L 811.859 691.658 L 811.161 695.89 L 809.724 695.327 C 809.864 691.756 809.91 682.499 809.511 678.487 C 809.442 677.797 806.414 677.307 805.253 674.296 C 808.577 673.194 819.834 674.335 823.982 674.52 C 837.107 675.108 884.493 675.291 890.488 662.205 L 888.713 662.185 C 883.87 665.244 867.387 672.621 862.505 668.709 C 864.91 666.339 878.746 664.257 884.235 662.097 C 899.199 656.207 923.272 628.927 921.808 612.422 z"/>
<path transform="translate(0,0)" fill="rgb(204,203,202)" d="M 877.108 608.255 C 878.706 603.094 879.618 596.668 880.549 591.26 L 882.344 597.742 C 881.195 613.473 871.437 624.476 859.396 633.898 C 852.446 639.336 816.487 642.026 810.185 637.123 C 809.856 634.903 810.018 633.898 811.803 632.156 L 813.347 631.748 C 838.798 634.105 865.35 634.941 877.108 608.255 z"/>
<path transform="translate(0,0)" fill="rgb(215,36,160)" d="M 793.634 474.028 C 849.597 450.382 891.488 488.188 947.483 484.478 C 949.955 484.314 953.593 483.498 955.576 484.515 C 954.011 485.997 948.488 488.309 946.199 489.373 L 946.444 489.933 C 950.576 489.676 962.434 486.773 966.438 485.352 L 966.232 484.478 L 961.277 482.17 L 961.065 481.325 C 987.379 470.173 1012.35 455.47 1041.22 461.133 C 1046.54 462.178 1055.6 467.557 1053.76 473.422 L 1052.6 473.075 C 1052.55 473.062 1050.91 472.599 1050.86 472.574 C 1041.26 466.679 984.798 473.589 984.91 486.001 C 968.279 499.546 960.03 510.464 955.048 532.587 C 954.377 535.567 953.02 547.873 952.199 549.689 C 952.081 554.7 951.698 561.832 952.004 566.668 C 952.982 571.416 956.567 586.899 958.771 590.611 C 960.32 592.079 961.933 594.703 963.172 596.532 C 965.626 597.107 983.183 591.042 987.92 590.567 C 992.696 590.088 999.097 591.387 1002.9 589.948 C 1003.39 587.244 1003.26 586.661 1003.03 583.88 C 1015.97 604.056 1046.46 614.408 1066.64 626.69 C 1070.83 629.242 1079.27 633.205 1082.87 636.375 C 1093.95 643.003 1098.82 650.034 1107.42 659.351 C 1108.81 661.809 1111.73 666.678 1112.7 669.05 L 1112.25 670.676 C 1108.83 666.263 1105.91 657.587 1100.39 657.986 C 1103.53 664.155 1106.2 665.902 1109.1 673.207 L 1108.27 673.666 C 1104.94 670.674 1104.02 669.344 1101.36 665.792 C 1099.05 667.509 1096.75 669.113 1094.64 671.078 C 1081.66 672.61 1064.12 676.291 1051.74 668.456 L 1051.65 669.975 C 1053.86 672.311 1054.26 672.369 1057.23 673.805 C 1058.14 675.227 1058.87 676.248 1059.6 677.786 C 1063.47 683.21 1070.17 686.224 1069.7 692.947 C 1068.74 694.145 1068.6 694.497 1067.43 695.422 C 1074.21 711.321 1075.97 723.185 1069.16 740 C 1068.73 741.042 1068.3 742.079 1067.85 743.111 C 1060.81 754.664 1050.62 762.031 1036.91 762.368 C 999.368 763.289 994.688 730.119 993.658 701.724 L 991.149 699.58 L 990.482 697.683 C 984.141 696.042 969.848 702.807 965.244 698.57 C 964.378 687.321 969.104 661.863 949.382 663.291 C 944.558 663.64 931.246 667.756 928.117 671.343 C 921.35 673.762 907.522 683.473 902.438 680.338 C 902.436 672.682 915.007 668.868 920.594 655.987 C 927.927 639.078 932.902 600.311 926.919 583.474 C 928.12 544.044 925.355 507.935 887.762 486.386 L 887.936 484.412 C 885.665 483.574 884.308 483.061 882.106 482 C 857.4 470.092 818.925 477.087 794.5 474.138 L 793.634 474.028 z"/>
<path transform="translate(0,0)" fill="url(#Gradient17)" d="M 958.771 590.611 C 960.32 592.079 961.933 594.703 963.172 596.532 C 965.626 597.107 983.183 591.042 987.92 590.567 C 992.696 590.088 999.097 591.387 1002.9 589.948 C 1003.39 587.244 1003.26 586.661 1003.03 583.88 C 1015.97 604.056 1046.46 614.408 1066.64 626.69 C 1070.83 629.242 1079.27 633.205 1082.87 636.375 C 1093.95 643.003 1098.82 650.034 1107.42 659.351 C 1108.81 661.809 1111.73 666.678 1112.7 669.05 L 1112.25 670.676 C 1108.83 666.263 1105.91 657.587 1100.39 657.986 C 1103.53 664.155 1106.2 665.902 1109.1 673.207 L 1108.27 673.666 C 1104.94 670.674 1104.02 669.344 1101.36 665.792 C 1099.05 667.509 1096.75 669.113 1094.64 671.078 C 1081.66 672.61 1064.12 676.291 1051.74 668.456 L 1051.65 669.975 C 1053.86 672.311 1054.26 672.369 1057.23 673.805 C 1058.14 675.227 1058.87 676.248 1059.6 677.786 C 1020.28 646.357 975.346 641.11 958.771 590.611 z"/>
<path transform="translate(0,0)" fill="rgb(204,203,202)" d="M 1082.87 636.375 C 1093.95 643.003 1098.82 650.034 1107.42 659.351 C 1108.81 661.809 1111.73 666.678 1112.7 669.05 L 1112.25 670.676 C 1108.83 666.263 1105.91 657.587 1100.39 657.986 C 1094.65 653.768 1083.47 645.399 1079.01 640.44 L 1079.28 639.338 C 1084.19 640.516 1091.14 649.593 1096.96 651.007 C 1094.53 646.667 1084.96 642.748 1082.87 636.375 z"/>
<path transform="translate(0,0)" fill="rgb(170,36,129)" d="M 1067.85 743.111 C 1065.8 732.743 1065.79 720.306 1064.05 710.971 C 1059.34 685.81 1014.18 677.622 996.967 664.466 C 971.952 645.343 955.209 620.5 948.971 589.351 C 947.049 579.754 947.157 557.051 952.199 549.689 C 952.081 554.7 951.698 561.832 952.004 566.668 C 952.982 571.416 956.567 586.899 958.771 590.611 C 975.346 641.11 1020.28 646.357 1059.6 677.786 C 1063.47 683.21 1070.17 686.224 1069.7 692.947 C 1068.74 694.145 1068.6 694.497 1067.43 695.422 C 1074.21 711.321 1075.97 723.185 1069.16 740 C 1068.73 741.042 1068.3 742.079 1067.85 743.111 z"/>
<path transform="translate(0,0)" fill="url(#Gradient16)" d="M 952.004 566.668 C 952.982 571.416 956.567 586.899 958.771 590.611 C 975.346 641.11 1020.28 646.357 1059.6 677.786 C 1063.47 683.21 1070.17 686.224 1069.7 692.947 C 1068.74 694.145 1068.6 694.497 1067.43 695.422 C 1034.88 649.83 943.177 648.513 952.004 566.668 z"/>
<path transform="translate(0,0)" fill="rgb(215,36,160)" d="M 984.91 486.001 C 1018.26 467.06 1063.36 467.041 1092.78 493.644 C 1093.52 498.807 1094.04 497.369 1092.02 501.604 C 1093.87 503.787 1095.5 505.49 1097.5 507.533 L 1102.8 505.819 C 1112.62 520.105 1114.55 537.089 1116.52 553.799 C 1116.94 557.403 1117.25 561.458 1118.48 564.842 L 1120.83 566.879 C 1111.31 571.079 1083.42 573.648 1072.12 574.684 C 1072.77 579.206 1072.67 579.583 1076.79 583.009 C 1079.12 584.945 1088.95 588.859 1090.71 590.354 C 1099.13 597.481 1101.24 614.787 1107.84 625.221 C 1111.37 630.806 1114.91 648.263 1117.88 655.597 C 1121.34 664.119 1125.45 671.874 1128.75 680.233 C 1129.26 681.514 1127.64 699.479 1126.92 701.952 C 1126.67 702.812 1125.6 704.262 1124.96 705.068 C 1124.34 692.986 1117.45 667.872 1109.21 659.244 L 1107.42 659.351 C 1098.82 650.034 1093.95 643.003 1082.87 636.375 C 1079.27 633.205 1070.83 629.242 1066.64 626.69 C 1046.46 614.408 1015.97 604.056 1003.03 583.88 C 1003.26 586.661 1003.39 587.244 1002.9 589.948 C 999.097 591.387 992.696 590.088 987.92 590.567 C 983.183 591.042 965.626 597.107 963.172 596.532 C 961.933 594.703 960.32 592.079 958.771 590.611 C 956.567 586.899 952.982 571.416 952.004 566.668 C 951.698 561.832 952.081 554.7 952.199 549.689 C 953.02 547.873 954.377 535.567 955.048 532.587 C 960.03 510.464 968.279 499.546 984.91 486.001 z"/>
<path transform="translate(0,0)" fill="url(#Gradient15)" d="M 984.91 486.001 C 1018.26 467.06 1063.36 467.041 1092.78 493.644 C 1093.52 498.807 1094.04 497.369 1092.02 501.604 C 1093.87 503.787 1095.5 505.49 1097.5 507.533 L 1102.31 509.125 L 1102.05 510.124 C 1090.55 516.456 1029.09 508.568 1026.42 511.159 L 1028.06 512.354 L 1028.91 512.177 C 1030.93 511.779 1033.85 511.161 1035.76 512.385 C 1024.25 512.715 1021.4 513.49 1010.53 518.458 C 998.826 531.891 993.356 548.774 997.923 566.471 C 998.476 572.856 1000.78 577.891 1003.03 583.88 C 1003.26 586.661 1003.39 587.244 1002.9 589.948 C 999.097 591.387 992.696 590.088 987.92 590.567 C 983.183 591.042 965.626 597.107 963.172 596.532 C 961.933 594.703 960.32 592.079 958.771 590.611 C 956.567 586.899 952.982 571.416 952.004 566.668 C 951.698 561.832 952.081 554.7 952.199 549.689 C 953.02 547.873 954.377 535.567 955.048 532.587 C 960.03 510.464 968.279 499.546 984.91 486.001 z"/>
<path transform="translate(0,0)" fill="rgb(177,178,176)" d="M 1010.53 518.458 C 1012.16 514.2 1015.76 515.226 1019.28 512.538 C 1017.89 508.254 976.481 511.309 975.265 502.125 C 979.918 492.827 1001.84 482.831 1011.98 480.773 C 1018.39 479.996 1025.55 480.096 1031.92 479.375 C 1057.52 476.474 1073.45 485.189 1092.02 501.604 C 1093.87 503.787 1095.5 505.49 1097.5 507.533 L 1102.31 509.125 L 1102.05 510.124 C 1090.55 516.456 1029.09 508.568 1026.42 511.159 L 1028.06 512.354 L 1028.91 512.177 C 1030.93 511.779 1033.85 511.161 1035.76 512.385 C 1024.25 512.715 1021.4 513.49 1010.53 518.458 z"/>
<path transform="translate(0,0)" fill="url(#Gradient14)" d="M 1102.8 505.819 C 1112.62 520.105 1114.55 537.089 1116.52 553.799 C 1116.94 557.403 1117.25 561.458 1118.48 564.842 C 1112.87 566.493 1085.01 567.909 1073.92 570.051 C 1074.85 538.446 1072.24 516.659 1035.76 512.385 C 1033.85 511.161 1030.93 511.779 1028.91 512.177 L 1028.06 512.354 L 1026.42 511.159 C 1029.09 508.568 1090.55 516.456 1102.05 510.124 L 1102.31 509.125 L 1097.5 507.533 L 1102.8 505.819 z"/>
<path transform="translate(0,0)" fill="rgb(146,118,137)" d="M 1010.53 518.458 C 1021.4 513.49 1024.25 512.715 1035.76 512.385 C 1072.24 516.659 1074.85 538.446 1073.92 570.051 C 1085.01 567.909 1112.87 566.493 1118.48 564.842 L 1120.83 566.879 C 1111.31 571.079 1083.42 573.648 1072.12 574.684 L 1072.25 572.119 C 1072.89 557.689 1070.26 543.428 1060.24 532.225 C 1046.97 517.368 1021.11 518.812 1007.19 531.988 C 997.095 541.538 998.023 553.605 997.923 566.471 C 993.356 548.774 998.826 531.891 1010.53 518.458 z"/>
<path transform="translate(0,0)" fill="rgb(241,31,172)" d="M 1025.98 534.306 C 1033.57 533.198 1048.59 535.122 1050.49 543.946 L 1048.1 543.173 L 1049.55 543.992 C 1041.59 538.225 1030.81 534.128 1021.49 540.015 C 1025.46 541.566 1028.93 536.578 1035.94 539.03 C 1038.44 541.602 1037.75 540.308 1038.39 544.035 C 1037.68 546.744 1037.25 548.203 1034.86 549.675 C 1026.85 554.61 1023.69 562.2 1019.14 569.668 C 1018.49 570.724 1018.25 570.338 1016.34 570.618 C 1013.99 568.028 1013.17 566.72 1012.23 563.383 C 1010.91 558.717 1011.57 553.712 1014.07 549.554 C 1014.91 548.136 1015.2 548.19 1015.15 546.517 C 1010.93 549.691 1008.25 559.415 1006.31 564.352 C 1003.75 570.877 1011.73 573.217 1010.22 578.66 C 994.504 575.093 1008.29 541.247 1025.98 534.306 z"/>
<path transform="translate(0,0)" fill="rgb(131,33,103)" d="M 884.189 699.029 C 891.109 696.775 903.021 696.908 910.438 697.301 L 911.342 698.154 C 908.261 704.235 896.341 700.085 891.615 704.182 C 891.49 704.291 889.121 702.709 886.697 706.611 C 886.407 706.533 883.246 705.684 883.245 705.684 C 872.834 710.028 862.886 714.799 852.768 719.802 L 858.587 720.535 L 859.348 721.576 C 855.591 723.141 851.251 724.501 848.531 727.396 C 848.485 728.927 848.235 731.574 848.687 732.863 C 851.233 728.465 854.474 720.083 860.089 723.296 L 860.608 724.735 L 856.78 726.067 L 859.884 726.441 L 859.715 727.621 C 855.683 729.262 855.735 728.954 854.73 733.395 C 853.499 738.84 849.62 744.07 847.676 749.332 C 841.091 767.159 832.627 783.811 832.328 803.215 C 832.285 806.019 830.231 809.481 830.296 812.8 C 836.558 804.979 838.569 787.71 843.247 784.729 L 843.641 786.823 C 841.93 791.161 840.222 801.252 839.825 806.051 C 839.093 808.49 837.687 811.286 838.548 813.217 C 835.479 821.742 825.546 828.956 817.777 832.72 C 812.771 835.145 797.991 835.448 791.584 836.59 C 787.07 837.395 776.782 842.54 773.94 842.797 C 751.983 844.778 721.133 849.292 700.318 841.105 C 694.592 838.852 687.606 835.178 682.697 834.167 C 674.191 832.416 666.049 833.325 657.691 830.481 C 652.618 828.625 650.821 826.775 646.644 823.281 C 644.91 820.582 644.335 806.795 642.874 800.978 L 643.044 777.687 L 643.092 762.405 L 643.293 745.272 C 640.384 742.606 639.725 741.831 635.859 740.454 L 635.177 739.853 C 634.949 737.001 635.119 733.223 635.163 730.29 L 644.06 730.116 L 644.211 731.28 C 648.302 731.295 675.226 729.434 676.496 730.199 C 676.625 732.831 677.02 732.418 675.857 734.222 L 672.874 734.47 C 673.645 737.342 675.191 738.807 676.126 741.534 C 682.333 759.629 683.066 781.213 688.648 799.113 C 697.75 800.986 728.322 795.708 739.404 800.002 C 740.977 801.679 742.582 803.325 744.219 804.939 C 755.58 816.065 760.43 805.564 758.577 793.474 L 762.254 798.425 L 763.251 799.075 C 774.164 798.623 800.354 797.385 810.191 799.394 C 808.831 788.13 809.092 777.775 809.067 766.467 C 810.105 760.392 810.229 746.56 810.455 739.84 C 812.616 743.701 811.228 748.528 813.452 750.921 C 814.02 748.325 814.046 731.744 814.096 728.12 C 816.886 730.238 817.35 730.835 820.626 731.756 C 824.359 731.486 827.4 727.739 830.242 725.016 L 829.568 726.688 C 830.402 731.897 830.655 742.636 827.363 746.996 C 824.791 750.402 824.326 750.862 824.983 754.951 L 826.627 755.511 C 835.964 750.369 844.017 724.079 853.679 714.228 C 861.793 705.957 879.601 703.19 884.189 699.029 z"/>
<path transform="translate(0,0)" fill="rgb(94,22,75)" d="M 830.296 812.8 C 836.558 804.979 838.569 787.71 843.247 784.729 L 843.641 786.823 C 841.93 791.161 840.222 801.252 839.825 806.051 C 839.093 808.49 837.687 811.286 838.548 813.217 C 835.479 821.742 825.546 828.956 817.777 832.72 C 812.771 835.145 797.991 835.448 791.584 836.59 C 787.07 837.395 776.782 842.54 773.94 842.797 C 751.983 844.778 721.133 849.292 700.318 841.105 C 694.592 838.852 687.606 835.178 682.697 834.167 C 674.191 832.416 666.049 833.325 657.691 830.481 L 657.489 829.209 C 658.347 827.012 657.879 827.762 660.448 826.382 C 666.189 828.677 666.628 825.357 674.253 827.855 C 707.916 838.721 744.492 835.219 779.257 833.078 C 789.524 832.446 798.722 829.387 809.905 830.689 C 814.952 831.277 827.123 818.264 830.296 812.8 z"/>
<path transform="translate(0,0)" fill="rgb(215,36,160)" d="M 643.683 744.158 C 648.769 739.12 665.103 733.455 671.331 739.869 C 674.029 748.712 680.675 779.965 680.441 788.406 L 679.09 787.222 L 679.06 786.255 C 678.928 782.819 677.946 776.031 675.552 773.619 C 672.987 774.705 672.07 775.972 670.115 777.985 C 667.744 778.725 664.203 776.891 661.657 775.921 L 661.262 777.219 C 664.938 780.63 667.975 778.291 669.144 781.3 L 667.943 782.76 C 646.165 777.875 644.026 764.046 644.025 745.095 L 643.683 744.158 z"/>
<path transform="translate(0,0)" fill="rgb(170,36,129)" d="M 644.025 745.095 C 644.026 764.046 646.165 777.875 667.943 782.76 C 669.776 784.038 671.559 787.339 672.411 789.435 C 669.318 802.999 646.133 796.818 643.044 777.687 L 643.092 762.405 L 643.293 745.272 L 644.025 745.095 z"/>
<path transform="translate(0,0)" fill="rgb(94,22,75)" d="M 763.251 799.075 C 774.164 798.623 800.354 797.385 810.191 799.394 C 810.087 801.218 810.365 800.37 808.952 801.818 C 803.271 802.705 764.204 803.934 761.664 801.108 L 763.251 799.075 z"/>
<path transform="translate(0,0)" fill="rgb(74,204,223)" d="M 635.163 730.29 L 644.06 730.116 L 644.211 731.28 C 643.975 735.577 643.691 739.854 643.683 744.158 L 644.025 745.095 L 643.293 745.272 C 640.384 742.606 639.725 741.831 635.859 740.454 L 635.177 739.853 C 634.949 737.001 635.119 733.223 635.163 730.29 z"/>
<path transform="translate(0,0)" fill="url(#Gradient13)" d="M 1100.39 657.986 C 1105.91 657.587 1108.83 666.263 1112.25 670.676 L 1112.7 669.05 C 1122.15 681.022 1124.4 708.343 1122.69 723.541 C 1122.51 725.051 1122.27 726.551 1121.94 728.036 C 1112.97 741.373 1113.85 759.896 1099.29 774.806 C 1100.17 769.807 1102.8 769.818 1102.91 765.113 L 1101.62 764.4 C 1082.68 775.548 1034.15 767.276 1010.94 771.055 C 1004.89 772.039 971.926 763.212 968.043 768.469 L 969.404 773.168 C 960.357 763.195 954.192 740.744 950.205 727.63 L 950.801 730.597 C 950.255 730.126 946.591 719.022 946.029 717.388 L 945.644 713.225 L 945.447 704.111 C 947.252 703.08 985.907 700.151 991.149 699.58 L 993.658 701.724 C 994.688 730.119 999.368 763.289 1036.91 762.368 C 1050.62 762.031 1060.81 754.664 1067.85 743.111 C 1068.3 742.079 1068.73 741.042 1069.16 740 C 1075.97 723.185 1074.21 711.321 1067.43 695.422 C 1068.6 694.497 1068.74 694.145 1069.7 692.947 C 1070.17 686.224 1063.47 683.21 1059.6 677.786 C 1058.87 676.248 1058.14 675.227 1057.23 673.805 C 1054.26 672.369 1053.86 672.311 1051.65 669.975 L 1051.74 668.456 C 1064.12 676.291 1081.66 672.61 1094.64 671.078 C 1096.75 669.113 1099.05 667.509 1101.36 665.792 C 1104.02 669.344 1104.94 670.674 1108.27 673.666 L 1109.1 673.207 C 1106.2 665.902 1103.53 664.155 1100.39 657.986 z"/>
<path transform="translate(0,0)" fill="rgb(230,201,222)" d="M 991.149 699.58 L 993.658 701.724 C 984.049 705.871 954.073 711.299 945.447 704.111 C 947.252 703.08 985.907 700.151 991.149 699.58 z"/>
<path transform="translate(0,0)" fill="rgb(170,36,129)" d="M 764.508 475.488 C 771.43 474.413 782.196 462.747 790.98 459.885 C 804.124 455.602 823.006 453.011 836.847 451.642 L 838.596 451.458 C 829.661 451.016 817.954 451.909 808.744 452.097 L 808.128 451.194 C 814.9 446.464 854.873 446.121 862.795 448.805 L 862.791 449.532 C 854.684 450.177 843.816 452.979 837.236 453.159 C 841.628 453.676 848.408 452.413 851.554 453.249 C 855.819 454.55 860.37 456 864.618 457.275 C 900.788 468.129 933.662 485.462 971.511 467.827 C 977.004 465.268 992.635 459.826 996.733 455.544 L 994.739 456.291 C 996.668 455.055 1008.29 447.409 1009.26 447.458 C 1020 448.004 1037.05 441.01 1045.67 448.188 L 1045.82 449.699 L 1037.58 450.372 C 1042.72 452.09 1051.71 451.705 1053.68 452.666 C 1059.24 455.372 1066.27 459.044 1072.42 461.608 C 1097.77 472.177 1102.66 473.54 1114.79 499.304 C 1118.11 506.186 1123.1 514.228 1126.71 520.712 C 1129.5 525.715 1131.99 540.481 1130.07 545.425 C 1125.86 556.23 1116.13 552.47 1122.99 566.997 C 1121.92 567.05 1121.73 567.211 1120.83 566.879 L 1118.48 564.842 C 1117.25 561.458 1116.94 557.403 1116.52 553.799 C 1114.55 537.089 1112.62 520.105 1102.8 505.819 L 1097.5 507.533 C 1095.5 505.49 1093.87 503.787 1092.02 501.604 C 1094.04 497.369 1093.52 498.807 1092.78 493.644 C 1063.36 467.041 1018.26 467.06 984.91 486.001 C 984.798 473.589 1041.26 466.679 1050.86 472.574 C 1050.91 472.599 1052.55 473.062 1052.6 473.075 L 1053.76 473.422 C 1055.6 467.557 1046.54 462.178 1041.22 461.133 C 1012.35 455.47 987.379 470.173 961.065 481.325 L 961.277 482.17 L 966.232 484.478 L 966.438 485.352 C 962.434 486.773 950.576 489.676 946.444 489.933 L 946.199 489.373 C 948.488 488.309 954.011 485.997 955.576 484.515 C 953.593 483.498 949.955 484.314 947.483 484.478 C 891.488 488.188 849.597 450.382 793.634 474.028 L 794.5 474.138 C 818.925 477.087 857.4 470.092 882.106 482 C 884.308 483.061 885.665 483.574 887.936 484.412 L 887.762 486.386 L 884.978 485.423 C 882.789 486.142 880.499 486.961 878.263 487.44 C 856.177 479.38 809.431 484.335 784.516 483.19 C 777.091 482.849 767.232 484.334 760.23 481.725 C 760.923 486.325 761.218 499.838 761.708 501.778 L 761.91 514.665 L 760.85 513.358 C 758.238 519.23 760.533 570.544 759.073 583.025 C 757.948 573.313 758.843 553.444 758.403 542.965 C 757.775 527.987 756.392 511.208 756.51 496.49 C 752.69 496.107 746.954 497.009 743.365 498.482 C 739.838 499.93 740.314 500.916 739.048 504.635 C 740.136 511.797 739.025 524.316 736.518 531.028 L 735.586 530.787 C 734.755 526.186 734.881 524.404 735 519.767 C 730.79 522.831 723.336 529.016 717.983 528.535 C 711.996 527.997 703.373 517.194 699.579 517.011 C 698.151 522.729 709.16 542.858 706.705 548.545 C 703.246 542.957 695.544 520.21 694.066 513.494 C 689.172 491.258 692.259 494.435 673.768 479.566 L 671.426 479.135 C 667.732 487.044 678.224 502.913 675.059 517.139 L 673.019 505.896 C 671.876 498.23 667.929 484.033 667.891 477.205 C 662.228 476.263 649.465 476.95 643.278 477.126 C 642.915 470.43 643.121 462.653 643.135 455.872 C 643.644 457.865 643.832 459.815 645.132 461.175 L 644.822 458.515 C 647.019 462.9 646.233 468.496 646 473.51 C 655.61 473.767 664.869 473.784 674.467 473.004 C 676.759 472.818 683.807 482.499 686.782 483.361 L 687.902 481.472 C 694.042 485.701 693.384 495.522 697.177 501.592 C 704.478 513.276 724.435 523.823 734.037 508.416 C 736.792 503.996 736.276 495.976 737.111 490.714 L 738.042 487.007 L 739.408 486.842 L 740.071 489.275 C 747.597 487.128 756.21 482.301 760.088 475.258 C 762.626 474.273 761.515 474.354 764.508 475.488 z"/>
<path transform="translate(0,0)" fill="rgb(230,201,222)" d="M 763.415 476.994 C 798.518 477.823 855.382 472.271 884.978 485.423 C 882.789 486.142 880.499 486.961 878.263 487.44 C 856.177 479.38 809.431 484.335 784.516 483.19 C 777.091 482.849 767.232 484.334 760.23 481.725 C 760.343 479.877 760.566 479.473 761.123 477.741 L 763.415 476.994 z"/>
<path transform="translate(0,0)" fill="rgb(204,203,202)" d="M 1092.78 493.644 C 1097.7 498.506 1099.1 500.018 1102.8 505.819 L 1097.5 507.533 C 1095.5 505.49 1093.87 503.787 1092.02 501.604 C 1094.04 497.369 1093.52 498.807 1092.78 493.644 z"/>
<path transform="translate(0,0)" fill="rgb(220,221,219)" d="M 969.404 773.168 L 968.043 768.469 C 971.926 763.212 1004.89 772.039 1010.94 771.055 C 1034.15 767.276 1082.68 775.548 1101.62 764.4 L 1102.91 765.113 C 1102.8 769.818 1100.17 769.807 1099.29 774.806 C 1096.51 778.853 1094.86 780.237 1091.23 783.59 L 1085.68 787.647 C 1079.99 791.225 1077.28 792.809 1071.14 795.449 L 1065.54 797.397 C 1058.52 799.126 1053.68 800.232 1046.49 801.289 C 1040.9 805.943 1025.38 803.125 1015.23 806.337 C 1011.92 805.932 1006.61 804.414 1003.22 803.548 C 1001.45 798.81 1001.48 800.606 1002.27 796.231 C 991.737 793.529 974.859 782.741 969.404 773.168 z"/>
<path transform="translate(0,0)" fill="rgb(147,140,145)" d="M 1002.27 796.231 C 1019.36 801.808 1028.75 801.505 1046.49 801.289 C 1040.9 805.943 1025.38 803.125 1015.23 806.337 C 1011.92 805.932 1006.61 804.414 1003.22 803.548 C 1001.45 798.81 1001.48 800.606 1002.27 796.231 z"/>
<path transform="translate(0,0)" fill="rgb(146,131,144)" d="M 941.332 744.727 C 943.244 734.174 940.045 726.964 943.971 714.053 L 945.644 713.225 L 946.029 717.388 C 946.591 719.022 950.255 730.126 950.801 730.597 L 950.205 727.63 C 954.192 740.744 960.357 763.195 969.404 773.168 C 974.859 782.741 991.737 793.529 1002.27 796.231 C 1001.48 800.606 1001.45 798.81 1003.22 803.548 C 1001.01 802.785 998.816 801.964 996.647 801.085 C 975.133 792.447 963.732 781.04 954.611 759.767 C 954.58 762.362 954.972 767.175 953.549 768.961 C 952.743 768.681 952.103 768.604 951.602 768.092 C 945.114 762.656 942.901 752.523 941.332 744.727 z"/>
<path transform="translate(0,0)" fill="rgb(131,33,103)" d="M 941.332 744.727 C 943.244 734.174 940.045 726.964 943.971 714.053 L 945.644 713.225 L 946.029 717.388 C 946.854 728.522 947.897 738.891 950.968 749.684 C 951.883 752.265 953.56 757.483 954.611 759.767 C 954.58 762.362 954.972 767.175 953.549 768.961 C 952.743 768.681 952.103 768.604 951.602 768.092 C 945.114 762.656 942.901 752.523 941.332 744.727 z"/>
<path transform="translate(0,0)" fill="rgb(147,140,145)" d="M 1099.29 774.806 C 1113.85 759.896 1112.97 741.373 1121.94 728.036 C 1118.94 748.914 1116.78 760.085 1104.83 778.334 L 1096.26 786.882 L 1091.23 783.59 C 1094.86 780.237 1096.51 778.853 1099.29 774.806 z"/>
<path transform="translate(0,0)" fill="rgb(131,33,103)" d="M 1107.42 659.351 L 1109.21 659.244 C 1117.45 667.872 1124.34 692.986 1124.96 705.068 C 1125.49 722.753 1123.97 730.17 1120.69 747.676 C 1119.78 752.51 1123.49 755.378 1121.79 760.963 C 1120.46 761.019 1120.5 761.01 1119.21 760.665 C 1118.69 763.908 1119.3 767.873 1118.06 769.01 L 1116.04 764.694 L 1114.78 764.663 C 1110.56 770.392 1111.89 772.181 1106.46 778.448 L 1104.83 778.334 C 1116.78 760.085 1118.94 748.914 1121.94 728.036 C 1122.27 726.551 1122.51 725.051 1122.69 723.541 C 1124.4 708.343 1122.15 681.022 1112.7 669.05 C 1111.73 666.678 1108.81 661.809 1107.42 659.351 z"/>
<path transform="translate(0,0)" fill="rgb(146,131,144)" d="M 1065.54 797.397 L 1068.47 802.997 C 1049.77 807.917 1034.66 809.928 1015.23 806.337 C 1025.38 803.125 1040.9 805.943 1046.49 801.289 C 1053.68 800.232 1058.52 799.126 1065.54 797.397 z"/>
<path transform="translate(0,0)" fill="rgb(146,131,144)" d="M 1071.14 795.449 C 1077.28 792.809 1079.99 791.225 1085.68 787.647 L 1090.35 791.897 C 1086.38 794.493 1083.49 796.544 1079.11 798.413 C 1077.48 797.004 1074.08 796.701 1071.14 795.449 z"/>
<path transform="translate(0,0)" fill="rgb(146,118,137)" d="M 1065.54 797.397 L 1071.14 795.449 C 1074.08 796.701 1077.48 797.004 1079.11 798.413 L 1068.47 802.997 L 1065.54 797.397 z"/>
<path transform="translate(0,0)" fill="rgb(136,130,135)" d="M 1091.23 783.59 L 1096.26 786.882 C 1094.44 788.49 1092.29 790.503 1090.35 791.897 L 1085.68 787.647 L 1091.23 783.59 z"/>
<path transform="translate(0,0)" fill="url(#Gradient12)" d="M 180.837 653.33 C 186.434 644.979 176.226 640.561 173.791 636.614 C 162.308 618.001 154.341 594.812 149.966 573.479 C 150.798 577.537 154.033 542.733 154.057 542.417 L 153.473 542.155 L 150.241 552.33 L 150.481 552.101 L 149.508 552.037 L 149.662 553.239 C 149.669 549.723 151.614 535.087 154.121 533.363 L 155.562 535.658 C 157.833 531.551 157.868 525.274 159.545 520.946 C 166.029 504.217 176.645 489.316 189.623 477.106 C 189.233 477.473 188.901 474.069 189.184 472.933 C 203.385 464.54 217.29 455.745 232.293 449.008 C 236.247 446.732 240.637 448.732 245.557 448.35 C 277.558 445.863 306.432 460.819 334.665 473.279 C 339.628 475.469 355.096 473.067 360.815 474.135 C 362.706 474.489 364.349 474.808 366.403 475.049 C 368.617 477.504 365.517 476.606 365.594 481.514 C 365.754 491.636 366.679 501.56 367.064 511.647 C 366.674 531.799 367.743 551.606 367.865 571.752 L 367.9 689.285 C 367.941 712.915 368.338 739.242 366.583 762.834 C 366.167 768.43 362.49 774.919 358.68 779.155 C 359.328 783.618 360.242 785.595 356.098 788.799 C 351.379 788.859 351.105 786.569 349.975 786.627 C 346.769 786.794 343.591 788.69 339.934 786.888 C 338.521 783.004 341.893 773.533 343.034 769.259 C 352.832 732.558 352.607 670.347 317.058 646.552 L 315.993 646.584 C 318.888 650.425 327.664 661.643 329.158 665.486 L 327.96 668.395 C 340.907 693.229 345.026 700.443 340.824 730.004 C 338.908 745.971 340.56 762.693 331.247 776.462 C 326.56 783.391 321.482 795.509 316.017 801.695 C 313.671 804.35 309.462 805.806 307.003 809.752 C 298.908 817.54 262.796 823.538 251.639 822.259 C 218.318 818.44 196.467 811.057 176.256 782.586 C 168.058 771.037 158.974 748.02 157.475 733.317 C 157.342 729.475 159.788 718.859 159.712 714.629 C 159.644 710.788 156.695 709.466 157.482 704.629 C 161.482 698.657 163.474 702.055 172.667 700.122 L 173.689 699.903 C 175.157 698.929 178.357 698.998 180.343 698.658 C 180.359 698.097 179.696 692.738 179.394 693.187 C 191.107 675.785 188.003 671.206 180.837 653.33 z"/>
<path transform="translate(0,0)" fill="url(#Gradient11)" d="M 271.528 670.878 C 275.225 669.491 290.692 671.444 297.57 669.764 C 307.192 667.414 311.276 662.363 320.469 661.965 C 324.3 663.956 325.117 665.18 327.96 668.395 C 340.907 693.229 345.026 700.443 340.824 730.004 C 338.908 745.971 340.56 762.693 331.247 776.462 C 326.56 783.391 321.482 795.509 316.017 801.695 C 313.671 804.35 309.462 805.806 307.003 809.752 C 298.908 817.54 262.796 823.538 251.639 822.259 C 218.318 818.44 196.467 811.057 176.256 782.586 C 168.058 771.037 158.974 748.02 157.475 733.317 C 157.342 729.475 159.788 718.859 159.712 714.629 C 159.644 710.788 156.695 709.466 157.482 704.629 C 161.482 698.657 163.474 702.055 172.667 700.122 L 173.689 699.903 L 169.812 702.554 C 176.956 702.244 206.635 698.824 210.364 701.236 C 210.709 705.066 211.226 709.552 211.398 713.331 C 214.479 728.58 215.812 746.82 231.178 754.682 C 247.28 766.878 272.684 761.524 285.837 747.059 L 289.609 741.148 L 292.592 733.456 C 292.394 724.086 294.198 710.757 290.927 702.581 C 292.322 695.226 290.961 694.557 288.403 687.806 C 286.447 683.454 275.438 674.049 271.528 670.878 z"/>
<path transform="translate(0,0)" fill="url(#Gradient10)" d="M 271.528 670.878 C 275.225 669.491 290.692 671.444 297.57 669.764 C 307.192 667.414 311.276 662.363 320.469 661.965 C 324.3 663.956 325.117 665.18 327.96 668.395 C 340.907 693.229 345.026 700.443 340.824 730.004 C 338.723 741.532 336.745 747.65 331.842 758.323 C 331.95 756.53 332.483 754.241 332.841 752.446 C 328.62 747.513 300.987 752.84 293.058 748.303 C 286.604 744.61 292.906 747.578 289.609 741.148 L 292.592 733.456 C 292.394 724.086 294.198 710.757 290.927 702.581 C 292.322 695.226 290.961 694.557 288.403 687.806 C 286.447 683.454 275.438 674.049 271.528 670.878 z"/>
<path transform="translate(0,0)" fill="rgb(132,149,152)" d="M 288.403 687.806 C 298.485 692.858 301.293 710.395 300.276 720.648 C 294.929 726.024 294.631 726.072 292.592 733.456 C 292.394 724.086 294.198 710.757 290.927 702.581 C 292.322 695.226 290.961 694.557 288.403 687.806 z"/>
<path transform="translate(0,0)" fill="rgb(56,120,132)" d="M 307.003 809.752 C 298.908 817.54 262.796 823.538 251.639 822.259 C 218.318 818.44 196.467 811.057 176.256 782.586 C 168.058 771.037 158.974 748.02 157.475 733.317 C 157.342 729.475 159.788 718.859 159.712 714.629 C 159.644 710.788 156.695 709.466 157.482 704.629 C 161.482 698.657 163.474 702.055 172.667 700.122 L 173.689 699.903 L 169.812 702.554 C 165.954 702.898 166.076 702.201 164.154 704.308 L 164.069 706.594 C 163.716 718.424 164.947 732.37 169.158 743.468 C 181.935 767.375 185.992 776.795 210.079 791.707 C 253.726 809.342 308.747 805.872 331.842 758.323 C 336.745 747.65 338.723 741.532 340.824 730.004 C 338.908 745.971 340.56 762.693 331.247 776.462 C 326.56 783.391 321.482 795.509 316.017 801.695 C 313.671 804.35 309.462 805.806 307.003 809.752 z"/>
<path transform="translate(0,0)" fill="rgb(105,135,140)" d="M 169.158 743.468 C 181.935 767.375 185.992 776.795 210.079 791.707 L 210.255 792.27 C 212.414 794.66 216.296 795.822 219.43 797.109 L 219.451 798.389 C 217.005 799.593 211.026 798.521 208.571 797.256 C 187.345 786.326 169.71 768.15 169.158 743.468 z"/>
<path transform="translate(0,0)" fill="rgb(177,178,176)" d="M 169.812 702.554 C 176.956 702.244 206.635 698.824 210.364 701.236 C 210.709 705.066 211.226 709.552 211.398 713.331 L 210.581 714.723 L 209.63 714.08 L 208.498 706.737 C 198.587 703.264 197.339 714.334 187.489 715.452 C 178.376 716.487 179.02 716.03 174.198 709.358 C 172.916 707.583 167.774 711.751 164.696 711.035 L 164.505 707.984 L 164.069 706.594 L 164.154 704.308 C 166.076 702.201 165.954 702.898 169.812 702.554 z"/>
<path transform="translate(0,0)" fill="rgb(199,231,233)" d="M 169.812 702.554 C 176.956 702.244 206.635 698.824 210.364 701.236 C 198.711 707.189 177.424 708.398 164.505 707.984 L 164.069 706.594 L 164.154 704.308 C 166.076 702.201 165.954 702.898 169.812 702.554 z"/>
<path transform="translate(0,0)" fill="rgb(220,221,219)" d="M 171.098 540.452 C 173.246 530.311 175.569 521.87 180.361 512.671 C 204.344 466.628 264.776 463.633 305.593 486.646 C 308.734 494.379 304.275 488.439 307.728 495.397 C 311.766 499.895 322.091 509.917 315.401 515.34 C 303.527 518.198 289.493 510.736 277.682 517.714 C 265.477 511.816 252.118 509.751 239.033 514.178 C 229.714 517.253 222.052 523.993 217.814 532.843 C 216.087 536.402 215.094 539.476 213.965 543.241 C 211.296 560.475 213.561 560.884 216.607 576.185 L 215.44 577.64 C 217.454 582.791 221.062 586.979 221.155 590.147 C 218.446 592.494 187.988 594.062 179.951 595.511 C 178.125 591.174 175.387 581.473 172.604 579.591 C 168.514 572.721 170.398 548.659 171.098 540.452 z"/>
<path transform="translate(0,0)" fill="url(#Gradient9)" d="M 213.965 543.241 C 211.425 534.565 216.14 535.091 218.225 527.744 C 220.023 521.411 231.547 516.457 237.753 511.631 L 237.167 510.749 C 230.218 510.579 223.416 510.535 216.477 510.593 C 209.382 510.652 192.154 514.992 187.689 508.568 C 193.79 495.437 222.18 481.288 236.739 479.942 C 262.909 477.523 286.004 478.583 307.728 495.397 C 311.766 499.895 322.091 509.917 315.401 515.34 C 303.527 518.198 289.493 510.736 277.682 517.714 C 265.477 511.816 252.118 509.751 239.033 514.178 C 229.714 517.253 222.052 523.993 217.814 532.843 C 216.087 536.402 215.094 539.476 213.965 543.241 z"/>
<path transform="translate(0,0)" fill="url(#Gradient8)" d="M 216.607 576.185 C 218.86 580.851 220.796 585.588 224.397 589.3 C 240.101 604.199 273.449 618.456 292.663 629.862 C 302.297 635.581 307.199 639.438 315.993 646.584 C 318.888 650.425 327.664 661.643 329.158 665.486 L 327.96 668.395 C 325.117 665.18 324.3 663.956 320.469 661.965 C 311.276 662.363 307.192 667.414 297.57 669.764 C 290.692 671.444 275.225 669.491 271.528 670.878 C 246.115 653.214 216.991 642.627 196.173 622.564 C 193.962 620.15 191.826 618.041 189.501 615.758 C 180.483 604.984 175.852 592.992 172.604 579.591 C 175.387 581.473 178.125 591.174 179.951 595.511 C 187.988 594.062 218.446 592.494 221.155 590.147 C 221.062 586.979 217.454 582.791 215.44 577.64 L 216.607 576.185 z"/>
<path transform="translate(0,0)" fill="rgb(46,154,168)" d="M 285.801 739.853 C 294.128 723.988 283.668 700.933 270.792 690.803 C 260.87 682.998 252.746 679.597 242.053 673.57 C 215.943 658.853 188.278 643.78 172.991 616.811 C 161.905 596.838 157.015 564.917 162.694 542.324 C 163.289 539.955 163.871 539.056 165.725 538.131 L 171.098 540.452 C 170.398 548.659 168.514 572.721 172.604 579.591 C 175.852 592.992 180.483 604.984 189.501 615.758 C 191.826 618.041 193.962 620.15 196.173 622.564 C 216.991 642.627 246.115 653.214 271.528 670.878 C 275.438 674.049 286.447 683.454 288.403 687.806 C 290.961 694.557 292.322 695.226 290.927 702.581 C 294.198 710.757 292.394 724.086 292.592 733.456 L 289.609 741.148 L 285.837 747.059 L 285.801 739.853 z"/>
<path transform="translate(0,0)" fill="rgb(105,135,140)" d="M 188.031 622.758 L 196.173 622.564 C 216.991 642.627 246.115 653.214 271.528 670.878 C 275.438 674.049 286.447 683.454 288.403 687.806 C 290.961 694.557 292.322 695.226 290.927 702.581 C 279.566 668.493 215.952 656.67 188.031 622.758 z"/>
<path transform="translate(0,0)" fill="rgb(132,149,152)" d="M 188.031 622.758 C 185.856 620.58 180.644 615.79 180.519 613.044 C 183.753 612.559 186.381 614.301 189.501 615.758 C 191.826 618.041 193.962 620.15 196.173 622.564 L 188.031 622.758 z"/>
<path transform="translate(0,0)" fill="url(#Gradient7)" d="M 305.593 486.646 C 319.527 495.525 327.73 512.085 331.908 527.666 C 335.113 540.697 336.897 552.241 338.365 565.608 C 323.646 565.432 309.933 568.126 296.091 568.221 C 296.004 555.959 296.567 547.416 291.923 535.839 C 290.448 532.95 288.733 530.041 287.129 527.21 C 283.616 522.564 282.233 521.459 277.682 517.714 C 289.493 510.736 303.527 518.198 315.401 515.34 C 322.091 509.917 311.766 499.895 307.728 495.397 C 304.275 488.439 308.734 494.379 305.593 486.646 z"/>
<path transform="translate(0,0)" fill="rgb(105,135,140)" d="M 213.965 543.241 C 215.094 539.476 216.087 536.402 217.814 532.843 C 222.052 523.993 229.714 517.253 239.033 514.178 C 252.118 509.751 265.477 511.816 277.682 517.714 C 282.233 521.459 283.616 522.564 287.129 527.21 C 288.733 530.041 290.448 532.95 291.923 535.839 C 296.567 547.416 296.004 555.959 296.091 568.221 C 309.933 568.126 323.646 565.432 338.365 565.608 C 336.897 552.241 335.113 540.697 331.908 527.666 C 345.431 542.521 336.904 552.625 341.067 570.604 C 341.777 579.099 328.464 577.251 324.953 578.18 C 298.863 585.081 289.268 584.205 286.287 554.918 C 281.897 511.777 224.754 514.591 219.941 556.969 C 217.908 574.864 221.335 573.855 224.397 589.3 C 220.796 585.588 218.86 580.851 216.607 576.185 C 213.561 560.884 211.296 560.475 213.965 543.241 z"/>
<path transform="translate(0,0)" fill="rgb(132,149,152)" d="M 287.129 527.21 C 288.733 530.041 290.448 532.95 291.923 535.839 C 290.65 538.685 290.623 539.2 288.263 541.05 L 286.984 539.756 C 285.663 534.345 286.135 532.781 287.129 527.21 z"/>
<path transform="translate(0,0)" fill="rgb(78,241,249)" d="M 231.178 754.682 C 229.134 751.196 222.766 740.434 222.716 736.493 C 226.092 740.427 227.605 744.746 231.948 747.844 C 246.414 758.162 275.918 754.83 285.801 739.853 L 285.837 747.059 C 272.684 761.524 247.28 766.878 231.178 754.682 z"/>
<path transform="translate(0,0)" fill="rgb(29,181,196)" d="M 180.837 653.33 C 178.83 647.279 174.774 637.893 167.538 637.912 L 167.141 638.967 L 173.018 643.599 L 173.089 644.388 L 170.232 645.223 C 171.468 647.231 172.043 648.502 173.025 650.654 C 172.622 653.276 172.59 653.129 170.711 655.093 L 169.71 654.596 L 170.687 650.955 C 161.167 639.65 146.037 603.238 141.465 587.462 C 139.66 581.235 138.884 571.061 138.326 564.492 C 135.767 534.351 142.275 515.498 157.778 490.106 C 171.235 466.586 188.272 452.587 212.67 441.423 C 230.834 433.112 230.978 435.967 249.545 433.083 C 274.186 429.255 295.408 439.973 318.555 446.986 C 324.975 448.931 330.538 451.787 337.166 452.6 C 354.078 454.609 369.502 445.128 385.473 444.719 C 401.257 444.314 424.738 448.595 436.225 460.34 C 451.105 475.553 455.338 495.703 455.641 516.04 L 455.122 513.476 C 454.739 524.757 455.878 536.512 456.184 547.848 C 457.098 581.749 455.739 615.685 456.656 649.584 C 457.134 667.247 460.293 684.864 459.785 702.545 C 459.676 706.419 457.259 709.394 456.083 712.952 C 455.512 714.927 457.164 714.298 455.427 717.549 C 462.688 721.398 474.872 723.685 482.783 726.949 C 483.319 727.171 491.51 724.049 492.743 723.573 L 494.006 724.517 L 491.656 726.237 C 492.768 726.662 492.852 726.655 493.978 726.467 C 517.163 722.596 531.771 639.186 536.567 618.391 C 539.945 603.743 544.543 589.152 547.009 574.328 C 550.039 556.116 550.175 536.748 555.042 518.862 C 559.473 502.132 566.982 486.375 577.185 472.397 C 587.747 458.219 617.865 433.569 634.795 431.093 C 634.908 434.729 635.248 436.825 635.822 440.339 C 636.42 452.946 635.983 464.545 639.077 476.884 C 633.42 476.859 607.386 476.024 603.809 477.592 L 604.12 480.201 C 601.893 485.528 601.409 489.866 600.499 495.49 L 597.645 511.605 C 593.702 535.345 588.866 558.927 583.147 582.303 C 574.733 612.607 567.845 643.584 559.458 674.15 C 554.435 694.625 550.101 715.262 546.464 736.028 C 544.817 743.906 533.947 793.008 534.592 798.535 L 534.536 799.138 C 534.109 803.37 532.068 806.111 533.975 809.051 C 537.222 809.581 543.962 809.654 547.519 809.789 C 543.474 810.601 538.177 812.028 534.273 811.416 C 530.643 808.428 532.024 807.068 529.008 802.123 C 523.524 799.502 519.824 801.678 516.481 806.118 L 515.861 806.952 C 501.627 811.06 438.833 808.05 420.48 809.146 C 406.429 809.986 388.24 810.812 373.855 811.123 C 370.968 811.185 368.803 807.589 367.296 804.987 C 363.267 798.031 348.813 815.034 343.566 816.082 C 345.158 815.764 331.963 814.266 331.379 814.225 C 331.543 814.03 331.779 813.014 331.864 812.711 L 329.567 812.325 L 329.312 810.926 C 331.383 810.227 332.314 810.107 333.871 808.54 C 329.195 808.975 330.111 809.568 326.431 807.67 L 324.615 809.508 L 323.238 809 L 323.969 807.458 L 322.884 805.597 L 327.113 802.242 C 326.391 800.915 325.893 799.97 325.056 798.69 C 321.594 799.83 312.778 806.62 308.028 809.2 L 307.003 809.752 C 309.462 805.806 313.671 804.35 316.017 801.695 C 321.482 795.509 326.56 783.391 331.247 776.462 C 340.56 762.693 338.908 745.971 340.824 730.004 C 345.026 700.443 340.907 693.229 327.96 668.395 L 329.158 665.486 C 327.664 661.643 318.888 650.425 315.993 646.584 L 317.058 646.552 C 352.607 670.347 352.832 732.558 343.034 769.259 C 341.893 773.533 338.521 783.004 339.934 786.888 C 343.591 788.69 346.769 786.794 349.975 786.627 C 351.105 786.569 351.379 788.859 356.098 788.799 C 360.242 785.595 359.328 783.618 358.68 779.155 C 362.49 774.919 366.167 768.43 366.583 762.834 C 368.338 739.242 367.941 712.915 367.9 689.285 L 367.865 571.752 C 367.743 551.606 366.674 531.799 367.064 511.647 C 366.679 501.56 365.754 491.636 365.594 481.514 C 365.517 476.606 368.617 477.504 366.403 475.049 C 364.349 474.808 362.706 474.489 360.815 474.135 C 355.096 473.067 339.628 475.469 334.665 473.279 C 306.432 460.819 277.558 445.863 245.557 448.35 C 240.637 448.732 236.247 446.732 232.293 449.008 C 217.29 455.745 203.385 464.54 189.184 472.933 C 188.901 474.069 189.233 477.473 189.623 477.106 C 176.645 489.316 166.029 504.217 159.545 520.946 C 157.868 525.274 157.833 531.551 155.562 535.658 L 154.121 533.363 C 151.614 535.087 149.669 549.723 149.662 553.239 L 149.508 552.037 L 150.481 552.101 L 150.241 552.33 L 153.473 542.155 L 154.057 542.417 C 154.033 542.733 150.798 577.537 149.966 573.479 C 154.341 594.812 162.308 618.001 173.791 636.614 C 176.226 640.561 186.434 644.979 180.837 653.33 z"/>
<path transform="translate(0,0)" fill="rgb(46,154,168)" d="M 367.064 511.647 C 368.516 507.927 367.037 483.533 371.151 477.195 L 373.303 482.856 C 372.205 488.703 373.431 507.953 373.741 515.05 C 374.383 530.096 374.689 545.154 374.658 560.213 C 374.686 566.209 374.409 580.106 375.019 585.323 C 374.152 609.525 373.086 630.438 370.862 654.475 C 368.093 676.377 371.443 707.26 372.009 729.872 C 372.139 735.052 373.041 755.77 373.864 760.167 L 375.699 756.417 C 382.686 752.691 415.73 756.356 420.057 754.899 C 426.765 754.34 439.048 755.239 446.556 755.051 C 468.712 754.495 492.3 755.333 514.34 754.098 C 511.551 753.511 511.119 753.564 508.856 751.966 L 509.302 750.555 C 512.514 749.028 514.788 749.399 518.369 749.446 C 518.588 750.698 518.629 751.121 519.3 752.238 C 525.436 762.446 522.534 779.105 523.957 789.285 L 525.528 789.73 C 533.418 783.344 536.737 723.516 544.929 707.622 C 545.655 713.961 543.538 715.915 543.048 722.406 L 543.944 722.896 C 548.842 712.603 550.433 694.376 553.132 682.256 L 582.658 555.075 C 586.285 540.021 590.501 504.672 600.499 495.49 L 597.645 511.605 C 593.702 535.345 588.866 558.927 583.147 582.303 C 574.733 612.607 567.845 643.584 559.458 674.15 C 554.435 694.625 550.101 715.262 546.464 736.028 C 544.817 743.906 533.947 793.008 534.592 798.535 L 534.536 799.138 C 534.109 803.37 532.068 806.111 533.975 809.051 C 537.222 809.581 543.962 809.654 547.519 809.789 C 543.474 810.601 538.177 812.028 534.273 811.416 C 530.643 808.428 532.024 807.068 529.008 802.123 C 523.524 799.502 519.824 801.678 516.481 806.118 L 515.861 806.952 C 501.627 811.06 438.833 808.05 420.48 809.146 C 406.429 809.986 388.24 810.812 373.855 811.123 C 370.968 811.185 368.803 807.589 367.296 804.987 C 363.267 798.031 348.813 815.034 343.566 816.082 C 345.158 815.764 331.963 814.266 331.379 814.225 C 331.543 814.03 331.779 813.014 331.864 812.711 L 329.567 812.325 L 329.312 810.926 C 331.383 810.227 332.314 810.107 333.871 808.54 C 329.195 808.975 330.111 809.568 326.431 807.67 L 324.615 809.508 L 323.238 809 L 323.969 807.458 L 322.884 805.597 L 327.113 802.242 C 326.391 800.915 325.893 799.97 325.056 798.69 C 321.594 799.83 312.778 806.62 308.028 809.2 L 307.003 809.752 C 309.462 805.806 313.671 804.35 316.017 801.695 C 321.482 795.509 326.56 783.391 331.247 776.462 C 340.56 762.693 338.908 745.971 340.824 730.004 C 345.026 700.443 340.907 693.229 327.96 668.395 L 329.158 665.486 C 327.664 661.643 318.888 650.425 315.993 646.584 L 317.058 646.552 C 352.607 670.347 352.832 732.558 343.034 769.259 C 341.893 773.533 338.521 783.004 339.934 786.888 C 343.591 788.69 346.769 786.794 349.975 786.627 C 351.105 786.569 351.379 788.859 356.098 788.799 C 360.242 785.595 359.328 783.618 358.68 779.155 C 362.49 774.919 366.167 768.43 366.583 762.834 C 368.338 739.242 367.941 712.915 367.9 689.285 L 367.865 571.752 C 367.743 551.606 366.674 531.799 367.064 511.647 z"/>
<path transform="translate(0,0)" fill="rgb(204,203,202)" d="M 514.34 754.098 C 513.787 766.452 513.637 787.505 514.848 799.758 C 471.572 800.228 428.291 799.97 385.024 798.984 C 380.933 798.19 377.308 798.464 373.153 798.575 C 374.603 788.512 373.946 770.861 373.864 760.167 L 375.699 756.417 C 382.686 752.691 415.73 756.356 420.057 754.899 C 426.765 754.34 439.048 755.239 446.556 755.051 C 468.712 754.495 492.3 755.333 514.34 754.098 z"/>
<path transform="translate(0,0)" fill="rgb(19,82,97)" d="M 385.024 798.984 C 428.291 799.97 471.572 800.228 514.848 799.758 C 514.75 803.601 515.383 803.185 513.5 805.644 C 483.896 808.123 455.459 806.544 425.716 807.098 C 409.742 807.395 390.141 810.179 373.944 809.517 C 371.785 809.428 370.743 807.853 369.809 806.329 C 371.823 801.452 380.298 799.683 385.024 798.984 z"/>
<path transform="translate(0,0)" fill="url(#Gradient6)" d="M 373.864 760.167 C 373.041 755.77 372.139 735.052 372.009 729.872 C 371.443 707.26 368.093 676.377 370.862 654.475 L 371.388 661.47 L 372.546 660.315 C 371.342 658.852 371.473 659.584 371.375 658.095 L 374.073 659.032 C 382.849 654.373 404.69 656.086 414.835 657.527 C 417.063 657.844 418.371 660.946 419.226 662.852 L 419.632 663.772 L 422.015 664.449 C 423.102 689.714 421.763 715.056 421.071 740.315 C 420.976 743.783 420.862 747.224 421.072 750.691 L 420.057 754.899 C 415.73 756.356 382.686 752.691 375.699 756.417 L 373.864 760.167 z"/>
<path transform="translate(0,0)" fill="url(#Gradient5)" d="M 373.741 515.05 C 377.06 516.793 378.331 515.073 382.333 514.907 C 394.062 514.419 406.166 513.772 417.67 511.252 L 418.035 506.537 C 419.066 508.392 418.81 515.609 419.127 518.4 L 418.282 560.532 C 418.195 566.458 418.543 577.322 418.133 582.729 C 416.289 587.345 417.3 586.745 413.729 589.275 C 411.483 589.472 410.798 589.538 408.587 588.962 C 400.371 586.821 385.761 596.736 377.549 594.165 C 376.75 590.952 376.129 588.488 375.019 585.323 C 374.409 580.106 374.686 566.209 374.658 560.213 C 374.689 545.154 374.383 530.096 373.741 515.05 z"/>
<path transform="translate(0,0)" fill="url(#Gradient4)" d="M 375.019 585.323 C 376.129 588.488 376.75 590.952 377.549 594.165 C 385.761 596.736 400.371 586.821 408.587 588.962 C 410.798 589.538 411.483 589.472 413.729 589.275 C 417.3 586.745 416.289 587.345 418.133 582.729 C 419.328 595.617 419.444 609.582 420.018 622.624 C 420.607 636.012 422.142 651.216 422.015 664.449 L 419.632 663.772 L 419.226 662.852 C 418.371 660.946 417.063 657.844 414.835 657.527 C 404.69 656.086 382.849 654.373 374.073 659.032 L 371.375 658.095 C 371.473 659.584 371.342 658.852 372.546 660.315 L 371.388 661.47 L 370.862 654.475 C 373.086 630.438 374.152 609.525 375.019 585.323 z"/>
<path transform="translate(0,0)" fill="rgb(177,178,176)" d="M 402.719 477.1 C 406.628 477.217 416.285 477.031 419.549 478.086 L 419.931 481.071 C 420.524 489.133 420.594 510.494 419.127 518.4 C 418.81 515.609 419.066 508.392 418.035 506.537 L 417.67 511.252 C 406.166 513.772 394.062 514.419 382.333 514.907 C 378.331 515.073 377.06 516.793 373.741 515.05 C 373.431 507.953 372.205 488.703 373.303 482.856 L 371.151 477.195 C 376.729 477.922 396.122 477.205 402.719 477.1 z"/>
<path transform="translate(0,0)" fill="rgb(199,231,233)" d="M 402.719 477.1 C 406.628 477.217 416.285 477.031 419.549 478.086 L 419.931 481.071 C 414.966 483.908 379.382 483.749 373.303 482.856 L 371.151 477.195 C 376.729 477.922 396.122 477.205 402.719 477.1 z"/>
<path transform="translate(0,0)" fill="rgb(46,154,168)" d="M 402.719 477.1 C 408.581 475.3 413.99 473.113 420.042 474.173 C 422.912 476.58 427.057 490.346 426.894 493.737 C 425.796 516.627 425.383 539.419 425.25 562.342 L 424.759 673.659 C 424.684 689.241 426.259 738.742 421.072 750.691 C 420.862 747.224 420.976 743.783 421.071 740.315 C 421.763 715.056 423.102 689.714 422.015 664.449 C 422.142 651.216 420.607 636.012 420.018 622.624 C 419.444 609.582 419.328 595.617 418.133 582.729 C 418.543 577.322 418.195 566.458 418.282 560.532 L 419.127 518.4 C 420.594 510.494 420.524 489.133 419.931 481.071 L 419.549 478.086 C 416.285 477.031 406.628 477.217 402.719 477.1 z"/>
<path transform="translate(0,0)" fill="rgb(74,204,223)" d="M 567.054 550.253 L 568.246 550.599 C 567.558 552.296 567.668 552.738 567.594 554.548 C 568.636 555.872 569.843 557.458 569.931 559.136 C 570.164 563.562 565.014 590.354 563.215 592.733 C 562.997 591.214 562.597 590.085 562.147 588.635 C 558.864 593.285 564.02 591.565 562.138 598.671 C 557.949 614.48 557.136 631.496 553.592 647.501 C 552.211 653.739 547.396 657.73 545.644 664.435 C 546.009 665.597 547.052 668.553 546.708 669.62 C 541.631 685.357 542.48 702.286 536.243 717.746 C 534.771 721.395 533.394 725.364 531.576 728.842 C 529.443 732.922 526.869 738.937 522.504 741.008 C 521.017 741.705 519.711 742.486 518.294 743.276 C 514.381 746.327 518.6 743.61 511.522 743.883 C 507.071 739.926 508.651 743.932 504.54 739.975 L 505.185 741.356 L 503.924 740.885 C 508.039 736.421 503.968 737.354 510.287 733.612 C 508.902 732.956 505.182 733.405 502.716 733.184 C 507.946 728.121 519.276 721.531 522.432 715.09 C 544.89 669.253 550.199 597.612 565.287 551.041 L 567.054 550.253 z"/>
<path transform="translate(0,0)" fill="url(#Gradient3)" d="M 559.458 674.15 C 561.584 673.943 564.002 673.16 565.908 672.235 C 573.913 668.351 583.12 668.884 592.057 666.252 C 596.148 665.047 604.982 661.695 608.357 661.364 L 606.528 664.969 C 606.827 667.721 607.401 668.946 608.707 671.379 C 608.106 674.717 605.342 686.928 605.735 689.365 L 611.062 688.866 L 612.168 687.787 C 616.497 688.082 637.528 689.074 640.963 688.272 L 641.895 688.221 C 642.223 689.951 642.613 692.449 643.132 694.044 C 644.082 705.518 645.512 718.816 644.06 730.116 L 635.163 730.29 L 633.756 730.088 C 627.944 730.13 598.882 727.915 595.562 729.698 C 592.24 741.778 593.722 744.196 587.819 757.312 C 587.975 752.115 588.15 749.507 587.285 744.411 C 583.462 742.357 555.316 748.319 548.212 742.039 C 547.935 739.352 547.879 738.33 546.464 736.028 C 550.101 715.262 554.435 694.625 559.458 674.15 z"/>
<path transform="translate(0,0)" fill="rgb(74,204,223)" d="M 612.168 687.787 C 616.497 688.082 637.528 689.074 640.963 688.272 L 641.895 688.221 C 642.223 689.951 642.613 692.449 643.132 694.044 C 644.082 705.518 645.512 718.816 644.06 730.116 L 635.163 730.29 L 633.756 730.088 C 633.102 721.638 635.614 701.701 633.714 695.719 L 631.315 694.57 C 634.092 693.049 633.482 693.908 634.492 691.419 C 631.101 688.398 617.424 689.5 611.062 688.866 L 612.168 687.787 z"/>
<path transform="translate(0,0)" fill="rgb(199,231,233)" d="M 611.062 688.866 C 617.424 689.5 631.101 688.398 634.492 691.419 C 633.482 693.908 634.092 693.049 631.315 694.57 C 626.115 695.168 603.007 696.436 600.211 692.363 C 602.059 689.567 601.448 690.462 605.735 689.365 L 611.062 688.866 z"/>
<path transform="translate(0,0)" fill="url(#Gradient2)" d="M 546.464 736.028 C 547.879 738.33 547.935 739.352 548.212 742.039 C 555.316 748.319 583.462 742.357 587.285 744.411 C 588.15 749.507 587.975 752.115 587.819 757.312 C 583.598 773.222 583.141 784.549 579.969 798.409 C 564.644 798.363 550.036 798.871 534.592 798.535 C 533.947 793.008 544.817 743.906 546.464 736.028 z"/>
<path transform="translate(0,0)" fill="rgb(89,216,232)" d="M 635.007 250.457 C 634.934 242.012 631.272 210.163 640.787 209.211 C 644.502 214.653 642.975 267.163 642.916 276.082 C 643.517 335.906 642.104 396.074 643.135 455.872 C 643.121 462.653 642.915 470.43 643.278 477.126 L 641.669 478.758 C 640.023 479.401 639.656 479.71 637.887 479.609 L 631.408 482.739 C 622.416 483.095 611.363 484.901 604.12 480.201 L 603.809 477.592 C 607.386 476.024 633.42 476.859 639.077 476.884 C 635.983 464.545 636.42 452.946 635.822 440.339 C 636.752 397.961 635.681 354.044 636.027 311.556 C 636.124 299.657 636.77 260.865 635.007 250.457 z"/>
<path transform="translate(0,0)" fill="rgb(199,231,233)" d="M 603.809 477.592 C 610.614 477.734 633.586 476.862 637.887 479.609 L 631.408 482.739 C 622.416 483.095 611.363 484.901 604.12 480.201 L 603.809 477.592 z"/>
<path transform="translate(0,0)" fill="rgb(74,204,223)" d="M 635.177 739.853 L 635.859 740.454 C 637.012 748.185 636.816 772.085 635.925 780.117 C 634.491 775.58 634.258 769.39 634.809 764.658 L 633.612 764.595 C 631.875 767.082 632.502 771.4 632.569 774.738 C 628.825 781.199 598.249 801.443 591.616 801.115 L 590.201 799.413 C 588.069 789.836 596.117 751.815 599.711 741.489 C 608.346 740.516 630.591 742.776 635.177 739.853 z"/>
<path transform="translate(0,0)" fill="rgb(19,82,97)" d="M 579.969 798.409 C 581.17 799.692 581.898 800.453 583.233 801.639 C 579.157 808.574 543.427 808.442 533.975 809.051 C 532.068 806.111 534.109 803.37 534.536 799.138 L 534.592 798.535 C 550.036 798.871 564.644 798.363 579.969 798.409 z"/>
<path transform="translate(0,0)" fill="rgb(56,120,132)" d="M 159.264 796.956 C 153.129 787.41 132.519 754.743 136.207 743.867 L 137.476 743.776 C 139.827 747.708 139.515 751.23 140.828 755.143 C 142.55 760.272 150.562 780.658 154.91 782.428 L 154.425 785.832 C 157.076 785.596 157.589 786.018 159.3 784.668 C 158.859 779.629 157.168 781.864 155.336 777.062 C 165.228 775.769 173.993 804.634 178.204 810.166 C 182.338 815.6 214.321 826.743 221.098 828.188 C 228.383 829.692 235.817 830.359 243.254 830.176 C 259.722 829.741 276.216 828.405 292.511 826.105 C 294.213 825.865 303.23 828.857 303.596 828.744 C 309.202 827.02 308.003 822.331 313.633 827.751 L 315.362 825.646 L 316.271 826.832 L 315.674 828.67 C 323.101 828.334 324.428 822.54 333.996 824.104 L 333.884 825.513 C 331.575 825.996 331.685 826.011 329.372 825.608 C 327.562 828.001 327.45 828.319 326.311 831.13 C 287.984 842.093 240.559 850.682 203.021 830.837 C 191.608 824.803 178.38 812.12 169.099 806.817 C 161.989 806.254 160.138 803.555 159.264 796.956 z"/>
<path transform="translate(0,0)" fill="rgb(30,105,121)" d="M 159.264 796.956 C 161.981 799.629 166.776 804.082 169.099 806.817 C 161.989 806.254 160.138 803.555 159.264 796.956 z"/>
<path transform="translate(0,0)" fill="url(#Gradient1)" d="M 680.633 249.12 C 723.438 247.623 767.026 248.123 809.914 248.089 L 1008.07 248.086 L 1122.12 248.207 C 1139.52 248.241 1157.03 247.994 1174.41 248.515 C 1181.01 248.713 1187 252.6 1191.79 256.737 C 1201.25 264.925 1200.12 276.005 1200.74 287.364 C 1200.84 321.713 1200.35 356.107 1200.51 390.51 L 1200.79 675.86 L 1200.62 807.387 C 1200.69 823.082 1200.74 839.369 1200.82 855.039 C 1201.03 892.843 1203.13 911.747 1158.09 912.003 L 812.779 911.728 C 810.04 912.05 805.532 911.934 802.62 911.854 C 768.875 910.929 734.314 913.046 700.66 911.746 C 694.092 910.572 684.667 913.69 679.934 909.515 C 678.752 906.168 677.798 905.21 678.349 902.092 C 684.654 900.876 710.199 901.499 717.346 901.855 C 720.516 901.395 723.806 901.502 727.006 901.464 C 759.889 901.071 792.785 902.101 825.667 901.389 C 906.77 899.379 992.308 901.328 1073.99 901.112 L 1135.3 901.018 C 1142.68 901.005 1150.22 901.233 1157.59 900.966 C 1175.49 900.318 1189.7 902.597 1189.82 879.623 C 1190.05 836.225 1189.97 792.856 1189.96 749.471 L 1189.9 496.183 L 1189.9 348.415 C 1189.89 322.88 1190.58 296.9 1188.99 271.497 C 1188.4 262.016 1179.56 259.737 1171.89 259.396 C 1155.06 258.647 1137.84 258.856 1121.02 258.821 L 1028.76 258.785 L 830.875 258.893 C 782.955 258.984 731.378 259.911 683.645 258.059 C 676.785 258.055 663.873 256.764 657.982 253.376 L 657.609 251.897 C 662.534 248.561 674.353 249.185 680.633 249.12 z"/>
<path transform="translate(0,0)" fill="rgb(113,79,125)" d="M 700.66 911.746 C 694.092 910.572 684.667 913.69 679.934 909.515 C 678.752 906.168 677.798 905.21 678.349 902.092 C 684.654 900.876 710.199 901.499 717.346 901.855 C 717.129 901.952 716.913 902.049 716.697 902.147 C 709.613 905.254 699.271 901.779 692.397 903.984 C 691.75 905.275 691.2 906.373 690.746 907.277 L 690.958 909.142 C 697.233 910.798 709.554 909.04 714 909.869 C 726.151 912.134 808.658 909.015 812.779 911.728 C 810.04 912.05 805.532 911.934 802.62 911.854 C 768.875 910.929 734.314 913.046 700.66 911.746 z"/>
<path transform="translate(0,0)" fill="rgb(113,79,125)" d="M 683.645 258.059 C 676.785 258.055 663.873 256.764 657.982 253.376 L 657.609 251.897 C 662.534 248.561 674.353 249.185 680.633 249.12 C 676.947 249.918 673.103 250.175 671.136 253.102 C 674.145 255.489 679.303 256.125 683.645 258.059 z"/>
<path transform="translate(0,0)" fill="rgb(74,204,223)" d="M 180.349 912.103 C 159.332 911.737 138.081 912.463 117 912.362 C 95.8962 912.26 77.8159 905.484 77.5755 881.35 C 77.4322 866.954 77.7131 852.42 77.7536 838.007 L 77.8258 751.364 L 77.8159 480.054 L 77.8326 337.596 C 77.7961 316.944 76.6967 296.092 77.6661 275.514 C 78.3645 260.689 90.2624 248.712 105.148 248.308 C 128.267 247.679 151.481 248.156 174.629 248.118 L 328.687 248.13 L 498.612 248.018 C 541.266 248.012 584.557 246.43 626.666 252.335 C 581.838 260.892 534.782 258.316 488.856 258.301 L 226.663 258.332 L 149.957 258.249 C 134.506 258.245 118.304 258.163 102.869 259.345 C 98.1875 259.704 96.4318 261.454 92.9584 264.23 C 88.4454 267.837 88.3164 279.021 88.2979 284.997 C 88.1681 326.932 88.2484 368.962 88.269 410.908 L 88.2706 654.652 L 88.248 801.742 C 88.2364 827.984 86.7969 855.109 88.7334 881.26 C 89.1546 886.948 90.0571 892.641 94.4573 896.737 C 102.49 904.214 191.896 901.15 207.497 901.045 C 222.931 902.44 247.024 901.687 263.097 901.624 L 360.284 901.335 L 523.181 901.471 C 546.996 901.486 574.897 902.365 598.186 901.625 C 599.448 905.003 599.158 903.672 598.048 908.039 C 594.428 911.931 588.737 911.759 583.092 911.794 C 548.465 912.008 513.632 911.805 479.016 911.782 L 275.47 911.823 L 209.361 911.679 C 205.81 911.67 183.079 911.536 180.349 912.103 z"/>
<path transform="translate(0,0)" fill="rgb(30,105,121)" d="M 635.859 740.454 C 639.725 741.831 640.384 742.606 643.293 745.272 L 643.092 762.405 L 643.044 777.687 L 642.874 800.978 C 644.335 806.795 644.91 820.582 646.644 823.281 C 644.433 831.386 641.056 852.952 645.915 859.764 C 655.278 872.268 667.903 876.308 674.91 891.596 C 677.785 897.869 678.331 900.423 684.821 900.539 C 731.047 901.36 779.543 902.852 825.667 901.389 C 792.785 902.101 759.889 901.071 727.006 901.464 C 723.806 901.502 720.516 901.395 717.346 901.855 C 710.199 901.499 684.654 900.876 678.349 902.092 C 677.798 905.21 678.752 906.168 679.934 909.515 C 684.667 913.69 694.092 910.572 700.66 911.746 C 698.188 912.18 692.913 912.745 691.388 912.941 C 683.155 913.997 690.353 930.073 688.284 935.219 C 687.2 935.471 686.117 935.722 685.034 935.974 C 684.866 938.456 685.2 937.464 683.917 939.446 L 681.089 939.308 L 683.423 937.459 C 683.677 935.35 683.893 933.991 685.197 932.702 C 687.817 930.114 684.542 918.461 683.555 913.639 C 672.41 910.393 679.21 902.471 672.676 895.352 C 668.208 909.974 682.049 924.498 677.502 939.048 C 672.479 955.123 649.053 939.189 640.192 935.896 C 633.966 933.583 624.606 947.928 618.587 949.721 C 609.904 951.641 597.489 941.699 594.098 934.07 C 591.498 928.075 600.683 923.044 597.529 914.813 C 594.614 913.11 576.169 913.931 571.031 913.713 C 556.183 913.084 540.934 913.188 526.056 913.105 L 272.073 912.557 L 208.808 912.739 C 203.11 912.727 185.325 912.981 180.349 912.103 C 183.079 911.536 205.81 911.67 209.361 911.679 L 275.47 911.823 L 479.016 911.782 C 513.632 911.805 548.465 912.008 583.092 911.794 C 588.737 911.759 594.428 911.931 598.048 908.039 C 599.158 903.672 599.448 905.003 598.186 901.625 C 601.114 900.748 609.008 893.232 611.89 890.856 C 615.172 879.745 617.531 878.869 625.87 870.715 C 625.405 869.35 625.279 869.232 624.329 868.202 L 623.493 867.31 C 647.093 863.41 628.376 851.317 635.584 841.361 L 636.016 785.102 L 635.925 780.117 C 636.816 772.085 637.012 748.185 635.859 740.454 z"/>
<path transform="translate(0,0)" fill="rgb(78,241,249)" d="M 638.57 876.324 C 645.237 885.026 670.541 924.479 668.098 934.601 L 663.929 934.839 C 659.531 932.902 650.747 915.528 647.477 909.993 C 643.975 911.022 640.219 911.397 637.116 912.96 C 632.513 915.278 628.193 918.856 623.573 921.056 C 620.265 927.507 619.121 931.977 612.229 934.231 C 609.021 933.587 610.105 934.267 608.142 931.715 C 607.933 928.485 608.229 928.083 609.921 925.283 L 614.446 918 L 618.754 910.212 C 623.111 902.935 626.726 896.24 630.68 888.732 C 633.357 884.627 635.987 880.49 638.57 876.324 z"/>
<path transform="translate(0,0)" fill="rgb(46,154,168)" d="M 623.573 921.056 C 629.388 911.063 633.379 905.02 638.173 894.334 C 641.295 899.116 645.335 904.816 647.477 909.993 C 643.975 911.022 640.219 911.397 637.116 912.96 C 632.513 915.278 628.193 918.856 623.573 921.056 z"/>
<path transform="translate(0,0)" fill="rgb(74,204,223)" d="M 635.859 740.454 C 639.725 741.831 640.384 742.606 643.293 745.272 L 643.092 762.405 L 643.044 777.687 L 642.874 800.978 C 642.437 821.819 642.677 843.674 641.657 864.31 C 638.382 863.927 639.152 864.476 636.872 862.69 C 634.779 856.981 635.495 847.767 635.584 841.361 L 636.016 785.102 L 635.925 780.117 C 636.816 772.085 637.012 748.185 635.859 740.454 z"/>
<path transform="translate(0,0)" fill="rgb(89,216,232)" d="M 635.859 740.454 C 639.725 741.831 640.384 742.606 643.293 745.272 L 643.092 762.405 L 641.313 768.471 C 641.007 764.079 640.692 760.374 640.09 756.017 L 640.292 756.631 L 639.639 755.936 C 637.027 763.836 637.862 776.6 636.016 785.102 L 635.925 780.117 C 636.816 772.085 637.012 748.185 635.859 740.454 z"/>
<path transform="translate(0,0)" fill="rgb(56,120,132)" d="M 638.57 876.324 C 649.814 876.608 652.578 882.164 659.366 890.097 L 659.562 890.916 L 668.885 909.171 C 672.511 915.475 674.408 929.68 668.098 934.601 C 670.541 924.479 645.237 885.026 638.57 876.324 z"/>
<path transform="translate(0,0)" fill="rgb(19,82,97)" d="M 611.89 890.856 C 615.172 879.745 617.531 878.869 625.87 870.715 C 625.405 869.35 625.279 869.232 624.329 868.202 L 623.493 867.31 C 647.093 863.41 628.376 851.317 635.584 841.361 C 635.495 847.767 634.779 856.981 636.872 862.69 C 639.152 864.476 638.382 863.927 641.657 864.31 C 646.936 876.783 655.366 878.661 659.366 890.097 C 652.578 882.164 649.814 876.608 638.57 876.324 C 636.583 873.319 636.306 872.671 632.982 871.432 C 624.532 871.256 616.408 884.586 611.89 890.856 z"/>
<path transform="translate(0,0)" fill="rgb(56,120,132)" d="M 609.921 925.283 C 608.424 917.851 614.051 899.069 618.228 893.379 L 619.203 893.358 C 619.03 898.247 616.603 902.035 616.103 905.816 C 615.518 910.236 615.299 913.269 614.446 918 L 609.921 925.283 z"/>
<path transform="translate(0,0)" fill="rgb(46,154,168)" d="M 618.754 910.212 C 617.948 899.208 619.569 892.733 630.68 888.732 C 626.726 896.24 623.111 902.935 618.754 910.212 z"/>
<path transform="translate(0,0)" fill="rgb(19,82,97)" d="M 659.562 890.916 C 670.973 893.968 669.162 897.856 668.9 908.67 L 668.885 909.171 L 659.562 890.916 z"/>
</svg>